<?xml version="1.0" encoding="UTF-8" standalone="no"?>
<!-- Created with Inkscape (http://www.inkscape.org/) -->

<svg
   version="1.1"
   id="svg2"
   width="666.66669"
   height="666.66669"
   viewBox="0 0 666.66669 666.66669"
   sodipodi:docname="write_a_review_image_when_list_is_empty.ai"
   xmlns:inkscape="http://www.inkscape.org/namespaces/inkscape"
   xmlns:sodipodi="http://sodipodi.sourceforge.net/DTD/sodipodi-0.dtd"
   xmlns="http://www.w3.org/2000/svg"
   xmlns:svg="http://www.w3.org/2000/svg">
  <defs
     id="defs6">
    <clipPath
       clipPathUnits="userSpaceOnUse"
       id="clipPath16">
      <path
         d="M 0,500 H 500 V 0 H 0 Z"
         id="path14" />
    </clipPath>
    <clipPath
       clipPathUnits="userSpaceOnUse"
       id="clipPath28">
      <path
         d="M 0,500 H 500 V 0 H 0 Z"
         id="path26" />
    </clipPath>
    <clipPath
       clipPathUnits="userSpaceOnUse"
       id="clipPath40">
      <path
         d="M 0,500 H 500 V 0 H 0 Z"
         id="path38" />
    </clipPath>
    <clipPath
       clipPathUnits="userSpaceOnUse"
       id="clipPath52">
      <path
         d="M 0,500 H 500 V 0 H 0 Z"
         id="path50" />
    </clipPath>
    <clipPath
       clipPathUnits="userSpaceOnUse"
       id="clipPath64">
      <path
         d="M 64.5421,204.759 H 94.0746 V 138.012 H 64.5421 Z"
         id="path62" />
    </clipPath>
    <clipPath
       clipPathUnits="userSpaceOnUse"
       id="clipPath104">
      <path
         d="m 397.574,211.969 h 23.64 v -28.714 h -23.64 z"
         id="path102" />
    </clipPath>
    <clipPath
       clipPathUnits="userSpaceOnUse"
       id="clipPath132">
      <path
         d="M 0,500 H 500 V 0 H 0 Z"
         id="path130" />
    </clipPath>
    <clipPath
       clipPathUnits="userSpaceOnUse"
       id="clipPath196">
      <path
         d="M 0,500 H 500 V 0 H 0 Z"
         id="path194" />
    </clipPath>
    <clipPath
       clipPathUnits="userSpaceOnUse"
       id="clipPath240">
      <path
         d="M 0,500 H 500 V 0 H 0 Z"
         id="path238" />
    </clipPath>
    <clipPath
       clipPathUnits="userSpaceOnUse"
       id="clipPath252">
      <path
         d="m 129.724,343.03 h 82.548 v -78.705 h -82.548 z"
         id="path250" />
    </clipPath>
    <clipPath
       clipPathUnits="userSpaceOnUse"
       id="clipPath268">
      <path
         d="m 129.724,343.03 h 82.548 v -78.705 h -82.548 z"
         id="path266" />
    </clipPath>
    <clipPath
       clipPathUnits="userSpaceOnUse"
       id="clipPath288">
      <path
         d="m 129.724,299.791 h 11.647 v -35.466 h -11.647 z"
         id="path286" />
    </clipPath>
    <clipPath
       clipPathUnits="userSpaceOnUse"
       id="clipPath328">
      <path
         d="m 141.371,303.519 h 18.907 v -30.971 h -18.907 z"
         id="path326" />
    </clipPath>
    <clipPath
       clipPathUnits="userSpaceOnUse"
       id="clipPath356">
      <path
         d="m 129.724,298.03 h 82.548 v -78.705 h -82.548 z"
         id="path354" />
    </clipPath>
    <clipPath
       clipPathUnits="userSpaceOnUse"
       id="clipPath372">
      <path
         d="m 129.724,298.03 h 82.548 v -78.705 h -82.548 z"
         id="path370" />
    </clipPath>
    <clipPath
       clipPathUnits="userSpaceOnUse"
       id="clipPath392">
      <path
         d="m 129.724,254.791 h 11.647 v -35.466 h -11.647 z"
         id="path390" />
    </clipPath>
    <clipPath
       clipPathUnits="userSpaceOnUse"
       id="clipPath432">
      <path
         d="m 141.371,258.519 h 18.907 v -30.971 h -18.907 z"
         id="path430" />
    </clipPath>
    <clipPath
       clipPathUnits="userSpaceOnUse"
       id="clipPath460">
      <path
         d="m 129.724,254.03 h 82.548 v -78.705 h -82.548 z"
         id="path458" />
    </clipPath>
    <clipPath
       clipPathUnits="userSpaceOnUse"
       id="clipPath476">
      <path
         d="m 129.724,254.03 h 82.548 v -78.705 h -82.548 z"
         id="path474" />
    </clipPath>
    <clipPath
       clipPathUnits="userSpaceOnUse"
       id="clipPath496">
      <path
         d="m 129.724,210.791 h 11.647 v -35.466 h -11.647 z"
         id="path494" />
    </clipPath>
    <clipPath
       clipPathUnits="userSpaceOnUse"
       id="clipPath536">
      <path
         d="m 141.371,214.519 h 18.907 v -30.971 h -18.907 z"
         id="path534" />
    </clipPath>
    <clipPath
       clipPathUnits="userSpaceOnUse"
       id="clipPath572">
      <path
         d="m 219.532,351.639 h 11.647 v -11.752 h -11.647 z"
         id="path570" />
    </clipPath>
    <clipPath
       clipPathUnits="userSpaceOnUse"
       id="clipPath628">
      <path
         d="M 226.452,412.461 H 339.886 V 339.887 H 226.452 Z"
         id="path626" />
    </clipPath>
    <clipPath
       clipPathUnits="userSpaceOnUse"
       id="clipPath644">
      <path
         d="M 0,500 H 500 V 0 H 0 Z"
         id="path642" />
    </clipPath>
    <clipPath
       clipPathUnits="userSpaceOnUse"
       id="clipPath660">
      <path
         d="m 368.058,292.655 h 17.447 v -16.904 h -17.447 z"
         id="path658" />
    </clipPath>
  </defs>
  <sodipodi:namedview
     id="namedview4"
     pagecolor="#ffffff"
     bordercolor="#000000"
     borderopacity="0.25"
     inkscape:showpageshadow="2"
     inkscape:pageopacity="0.0"
     inkscape:pagecheckerboard="0"
     inkscape:deskcolor="#d1d1d1" />
  <g
     id="g8"
     inkscape:groupmode="layer"
     inkscape:label="write_a_review_image_when_list_is_empty"
     transform="matrix(1.3333333,0,0,-1.3333333,0,666.66667)">
    <g
       id="g10">
      <g
         id="g12"
         clip-path="url(#clipPath16)">
        <g
           id="g18"
           transform="translate(91.0049,89.8457)">
          <path
             d="m 0,0 c 87.286,-45.599 228.804,-45.6 316.088,-0.001 87.285,45.6 87.285,119.529 0,165.127 -87.286,45.6 -228.804,45.6 -316.089,0.002 C -87.286,119.529 -87.286,45.599 0,0"
             style="fill:#f5f5f5;fill-opacity:1;fill-rule:nonzero;stroke:none"
             id="path20" />
        </g>
      </g>
    </g>
    <g
       id="g22">
      <g
         id="g24"
         clip-path="url(#clipPath28)">
        <g
           id="g30"
           transform="translate(363.4023,168.7861)">
          <path
             d="m 0,0 c 10.354,-4.936 27.141,-4.936 37.495,0 10.354,4.934 10.354,12.935 0,17.87 C 27.141,22.804 10.354,22.804 0,17.87 -10.354,12.935 -10.354,4.934 0,0"
             style="fill:#e7e7e7;fill-opacity:1;fill-rule:nonzero;stroke:none"
             id="path32" />
        </g>
      </g>
    </g>
    <g
       id="g34">
      <g
         id="g36"
         clip-path="url(#clipPath40)">
        <g
           id="g42"
           transform="translate(384.6631,397.6782)">
          <path
             d="m 0,0 3.796,-1.46 v 8.362 c 0,6.628 5.287,8.218 11.027,4.904 5.74,-3.315 10.395,-11.375 10.395,-18.004 v -1.214 c 1.302,0.52 2.984,0.318 4.823,-0.743 4.131,-2.386 7.48,-8.186 7.48,-12.955 v -0.552 l 5.292,-3.056 c 2.72,-1.571 4.925,-5.39 4.925,-8.531 0,-3.142 -2.205,-4.415 -4.925,-2.844 L 0,-11.375 c -2.721,1.571 -4.926,5.39 -4.926,8.531 0,3.141 2.205,4.415 4.926,2.844"
             style="fill:#f0f0f0;fill-opacity:1;fill-rule:nonzero;stroke:none"
             id="path44" />
        </g>
      </g>
    </g>
    <g
       id="g46">
      <g
         id="g48"
         clip-path="url(#clipPath52)">
        <g
           id="g54"
           transform="translate(85.2798,138.0117)">
          <path
             d="m 0,0 7.013,4.007 c 0,0 3.363,18.537 0.848,34.471 -3.537,22.402 -18.79,30.129 -24.33,27.903 -5.54,-2.228 -6.842,-8.863 3.163,-21.808 C -7.403,36.936 0.189,20.791 0,0"
             style="fill:#00dfbf;fill-opacity:1;fill-rule:nonzero;stroke:none"
             id="path56" />
        </g>
        <g
           id="g58">
          <g
             id="g60" />
          <g
             id="g72">
            <g
               clip-path="url(#clipPath64)"
               opacity="0.100006"
               id="g70">
              <g
                 transform="translate(85.2798,138.0117)"
                 id="g68">
                <path
                   d="m 0,0 7.013,4.007 c 0,0 3.363,18.537 0.848,34.471 -3.537,22.402 -18.79,30.129 -24.33,27.903 -5.54,-2.228 -6.842,-8.863 3.163,-21.808 C -7.403,36.936 0.189,20.791 0,0"
                   style="fill:#000000;fill-opacity:1;fill-rule:nonzero;stroke:none"
                   id="path66" />
              </g>
            </g>
          </g>
        </g>
        <g
           id="g74"
           transform="translate(88.4565,144.9375)">
          <path
             d="m 0,0 c -0.014,0 -0.028,0 -0.042,0.001 -0.384,0.022 -0.678,0.352 -0.656,0.737 1.624,27.905 -3.706,44.419 -17.821,55.221 -0.306,0.235 -0.365,0.673 -0.131,0.979 0.235,0.306 0.675,0.363 0.979,0.13 C -3.144,45.949 2.349,29.079 0.695,0.656 0.674,0.286 0.366,0 0,0"
             style="fill:#ffffff;fill-opacity:1;fill-rule:nonzero;stroke:none"
             id="path76" />
        </g>
        <g
           id="g78"
           transform="translate(65.8223,126.7715)">
          <path
             d="m 0,0 c -1.108,-0.637 -3.392,0.755 -4.267,1.342 -1.497,1.005 -2.711,2.428 -3.517,4.037 -0.938,1.873 -1.174,3.88 -0.881,5.952 0.153,1.074 0.454,2.121 0.753,3.165 0.295,1.024 0.589,2.048 0.884,3.071 0.29,1.011 0.583,2.056 0.45,3.099 -0.269,2.102 -2.134,3.573 -3.829,4.843 -1.875,1.404 -3.827,3.257 -3.817,5.786 0.009,1.952 1.019,3.765 2.228,5.296 1.21,1.532 2.645,2.886 3.738,4.502 0.787,1.164 1.401,2.531 1.273,3.93 -0.079,0.87 -0.44,1.689 -0.856,2.456 -0.893,1.647 -2.071,3.156 -2.687,4.925 -0.616,1.769 -0.529,3.97 0.852,5.236 1.134,1.039 2.818,1.184 4.353,1.083 1.419,-0.094 2.806,-0.735 4.048,-1.425 4.015,-2.234 6.307,-6.989 10.568,-8.707 1.644,-0.663 3.445,-0.808 5.158,-1.261 1.714,-0.453 3.46,-1.328 4.254,-2.912 1.564,-3.125 -1.339,-6.975 -0.24,-10.291 0.973,-2.936 3.826,-4.059 5.427,-6.703 0.7,-1.157 0.862,-2.494 0.749,-3.843 -0.191,-2.28 -0.525,-3.955 -1.62,-6.492 C 22.116,14.993 19.458,11.24 19.458,11.24 19.391,11.175 0.17,0.098 0,0"
             style="fill:#00dfbf;fill-opacity:1;fill-rule:nonzero;stroke:none"
             id="path80" />
        </g>
        <g
           id="g82"
           transform="translate(77.3022,132.708)">
          <path
             d="m 0,0 c -0.03,0 -0.059,0.002 -0.089,0.005 -0.382,0.048 -0.653,0.396 -0.604,0.78 2.027,16.074 -5.639,37.751 -17.088,48.319 -0.284,0.26 -0.301,0.702 -0.04,0.984 0.263,0.285 0.702,0.302 0.986,0.04 C -4.896,39.108 2.803,17.357 0.691,0.609 0.646,0.258 0.347,0 0,0"
             style="fill:#ffffff;fill-opacity:1;fill-rule:nonzero;stroke:none"
             id="path84" />
        </g>
        <g
           id="g86"
           transform="translate(75.3032,153.6846)">
          <path
             d="m 0,0 c -0.146,0 -0.293,0.046 -0.418,0.14 -6.107,4.58 -15.845,3.745 -15.94,3.735 -0.384,-0.045 -0.723,0.247 -0.758,0.631 -0.035,0.383 0.246,0.723 0.631,0.758 C -16.062,5.305 -6.111,6.155 0.418,1.256 0.727,1.025 0.79,0.588 0.558,0.28 0.421,0.097 0.211,0 0,0"
             style="fill:#ffffff;fill-opacity:1;fill-rule:nonzero;stroke:none"
             id="path88" />
        </g>
        <g
           id="g90"
           transform="translate(74.3306,157.7041)">
          <path
             d="M 0,0 C -0.009,0 -0.018,0 -0.027,0.001 -0.413,0.016 -0.712,0.34 -0.697,0.726 -0.384,8.769 5.507,13.467 5.758,13.664 6.062,13.897 6.5,13.846 6.736,13.545 6.974,13.241 6.92,12.803 6.618,12.564 6.561,12.521 0.985,8.052 0.696,0.671 0.683,0.294 0.373,0 0,0"
             style="fill:#ffffff;fill-opacity:1;fill-rule:nonzero;stroke:none"
             id="path92" />
        </g>
        <g
           id="g94"
           transform="translate(397.5742,193.0234)">
          <path
             d="m 0,0 c 0.282,3.505 2.984,9.485 6.987,13.745 4.004,4.259 10.409,6.311 14.36,4.595 3.679,-1.6 2.87,-6.53 -1.986,-9.45 C 14.506,5.969 7.273,2.392 4.797,-3.132 L 0,-9.769 Z"
             style="fill:#00dfbf;fill-opacity:1;fill-rule:nonzero;stroke:none"
             id="path96" />
        </g>
        <g
           id="g98">
          <g
             id="g100" />
          <g
             id="g112">
            <g
               clip-path="url(#clipPath104)"
               opacity="0.100006"
               id="g110">
              <g
                 transform="translate(397.5742,193.0234)"
                 id="g108">
                <path
                   d="m 0,0 c 0.282,3.505 2.984,9.485 6.987,13.745 4.004,4.259 10.409,6.311 14.36,4.595 3.679,-1.6 2.87,-6.53 -1.986,-9.45 C 14.506,5.969 7.273,2.392 4.797,-3.132 L 0,-9.769 Z"
                   style="fill:#000000;fill-opacity:1;fill-rule:nonzero;stroke:none"
                   id="path106" />
              </g>
            </g>
          </g>
        </g>
        <g
           id="g114"
           transform="translate(397.5742,186.6299)">
          <path
             d="m 0,0 c -0.021,0 -0.043,0.001 -0.064,0.003 -0.263,0.037 -0.449,0.278 -0.414,0.541 1.75,12.977 14.943,22.009 20.187,23.008 0.262,0.052 0.513,-0.123 0.562,-0.382 0.05,-0.262 -0.122,-0.514 -0.381,-0.563 C 14.998,21.677 2.139,12.747 0.477,0.416 0.444,0.175 0.237,0 0,0"
             style="fill:#ffffff;fill-opacity:1;fill-rule:nonzero;stroke:none"
             id="path116" />
        </g>
        <g
           id="g118"
           transform="translate(398.0986,178.5508)">
          <path
             d="m 0,0 c 0.722,1.926 3.39,4.983 7.499,7.356 4.545,2.625 10.105,3.554 11.547,5.766 1.732,2.656 -0.399,5.47 -4.866,5.276 C 9.713,18.206 1.449,12.796 -0.524,3.81 Z"
             style="fill:#00dfbf;fill-opacity:1;fill-rule:nonzero;stroke:none"
             id="path120" />
        </g>
        <g
           id="g122"
           transform="translate(397.7803,180.4131)">
          <path
             d="m 0,0 c -0.03,0 -0.062,0.003 -0.094,0.009 -0.26,0.053 -0.429,0.305 -0.378,0.565 1.325,6.654 10.973,13.547 17.206,13.836 0.245,-0.002 0.492,-0.192 0.503,-0.458 0.012,-0.264 -0.192,-0.49 -0.458,-0.503 C 10.992,13.182 1.697,6.55 0.472,0.387 0.426,0.157 0.226,0 0,0"
             style="fill:#ffffff;fill-opacity:1;fill-rule:nonzero;stroke:none"
             id="path124" />
        </g>
      </g>
    </g>
    <g
       id="g126">
      <g
         id="g128"
         clip-path="url(#clipPath132)">
        <g
           id="g134"
           transform="translate(227.6255,138.1064)">
          <path
             d="M 0,0 V -0.401 C 0,-1.044 0.451,-1.825 1.008,-2.146 L 60.44,-36.46 c 0.557,-0.321 1.459,-0.321 2.016,0 l 87.793,50.687 c 0.556,0.321 1.007,1.102 1.007,1.745 v 0.402 c 0,0.643 -0.451,1.424 -1.007,1.745 L 90.816,52.433 c -0.557,0.321 -1.459,0.321 -2.016,0 L 1.008,1.746 C 0.451,1.425 0,0.643 0,0"
             style="fill:#e1e1e1;fill-opacity:1;fill-rule:nonzero;stroke:none"
             id="path136" />
        </g>
        <g
           id="g138"
           transform="translate(227.6255,138.1064)">
          <path
             d="M 0,0 V -0.401 C 0,-1.044 0.451,-1.825 1.008,-2.146 L 60.44,-36.46 c 0.278,-0.161 0.643,-0.241 1.009,-0.241 v 7.846 L 4.727,3.893 1.008,1.746 C 0.451,1.425 0,0.643 0,0"
             style="fill:#e7e7e7;fill-opacity:1;fill-rule:nonzero;stroke:none"
             id="path140" />
        </g>
        <g
           id="g142"
           transform="translate(228.6333,138.6885)">
          <path
             d="m 0,0 59.432,-34.313 c 0.557,-0.322 1.459,-0.322 2.016,0 l 87.793,50.687 c 0.556,0.321 0.556,0.842 0,1.163 L 89.808,51.851 c -0.557,0.321 -1.459,0.321 -2.016,0 L 0,1.164 C -0.557,0.843 -0.557,0.321 0,0"
             style="fill:#ffffff;fill-opacity:1;fill-rule:nonzero;stroke:none"
             id="path144" />
        </g>
        <g
           id="g146"
           transform="translate(304.3584,125.042)">
          <path
             d="m 0,0 -40.021,23.106 c -0.697,0.402 -0.731,1.034 -0.079,1.41 0.653,0.377 1.746,0.357 2.442,-0.045 L 2.363,1.364 C 3.059,0.963 3.094,0.332 2.441,-0.045 1.789,-0.422 0.695,-0.401 0,0"
             style="fill:#ececec;fill-opacity:1;fill-rule:nonzero;stroke:none"
             id="path148" />
        </g>
        <g
           id="g150"
           transform="translate(275.9463,122.2949)">
          <path
             d="m 0,0 -19.738,11.396 c -0.696,0.402 -0.731,1.033 -0.077,1.41 0.652,0.377 1.745,0.356 2.441,-0.045 L 2.363,1.364 C 3.06,0.963 3.095,0.332 2.441,-0.045 1.789,-0.422 0.696,-0.401 0,0"
             style="fill:#e1e1e1;fill-opacity:1;fill-rule:nonzero;stroke:none"
             id="path152" />
        </g>
        <g
           id="g154"
           transform="translate(281.6143,125.3262)">
          <path
             d="m 0,0 -13.886,8.017 c -0.489,0.282 -0.513,0.726 -0.054,0.991 0.459,0.265 1.228,0.251 1.717,-0.031 L 1.662,0.96 C 2.151,0.678 2.177,0.233 1.717,-0.031 1.258,-0.297 0.489,-0.282 0,0"
             style="fill:#ececec;fill-opacity:1;fill-rule:nonzero;stroke:none"
             id="path156" />
        </g>
        <g
           id="g158"
           transform="translate(311.46,129.1279)">
          <path
             d="m 0,0 -40.021,23.106 c -0.696,0.403 -0.731,1.034 -0.079,1.411 0.654,0.377 1.746,0.356 2.443,-0.045 L 2.363,1.365 C 3.06,0.963 3.094,0.332 2.441,-0.045 1.789,-0.422 0.696,-0.401 0,0"
             style="fill:#ececec;fill-opacity:1;fill-rule:nonzero;stroke:none"
             id="path160" />
        </g>
        <g
           id="g162"
           transform="translate(318.5625,133.2148)">
          <path
             d="m 0,0 -40.021,23.106 c -0.697,0.402 -0.731,1.033 -0.079,1.41 0.653,0.377 1.746,0.356 2.442,-0.045 L 2.363,1.364 C 3.059,0.963 3.094,0.332 2.441,-0.045 1.788,-0.422 0.695,-0.401 0,0"
             style="fill:#ececec;fill-opacity:1;fill-rule:nonzero;stroke:none"
             id="path164" />
        </g>
        <g
           id="g166"
           transform="translate(325.6641,137.3008)">
          <path
             d="m 0,0 -21.136,12.235 c -0.695,0.403 -0.73,1.034 -0.077,1.411 0.652,0.375 1.745,0.356 2.442,-0.046 L 2.363,1.364 C 3.06,0.963 3.094,0.332 2.441,-0.045 1.789,-0.422 0.695,-0.401 0,0"
             style="fill:#ececec;fill-opacity:1;fill-rule:nonzero;stroke:none"
             id="path168" />
        </g>
        <g
           id="g170"
           transform="translate(345.7129,148.916)">
          <path
             d="m 0,0 -40.021,23.106 c -0.696,0.403 -0.731,1.034 -0.078,1.411 0.653,0.377 1.745,0.356 2.442,-0.045 L 2.364,1.365 C 3.06,0.963 3.095,0.332 2.441,-0.045 1.789,-0.422 0.696,-0.401 0,0"
             style="fill:#ececec;fill-opacity:1;fill-rule:nonzero;stroke:none"
             id="path172" />
        </g>
        <g
           id="g174"
           transform="translate(352.8154,153.0029)">
          <path
             d="m 0,0 -40.021,23.106 c -0.697,0.402 -0.731,1.033 -0.079,1.41 0.653,0.377 1.746,0.356 2.442,-0.045 L 2.363,1.364 C 3.059,0.963 3.094,0.332 2.441,-0.045 1.788,-0.422 0.695,-0.401 0,0"
             style="fill:#ececec;fill-opacity:1;fill-rule:nonzero;stroke:none"
             id="path176" />
        </g>
        <g
           id="g178"
           transform="translate(338.6113,144.8301)">
          <path
             d="m 0,0 -40.021,23.106 c -0.696,0.402 -0.731,1.034 -0.079,1.41 0.654,0.377 1.746,0.357 2.442,-0.045 L 2.363,1.364 C 3.059,0.963 3.094,0.332 2.441,-0.045 1.789,-0.422 0.695,-0.401 0,0"
             style="fill:#ececec;fill-opacity:1;fill-rule:nonzero;stroke:none"
             id="path180" />
        </g>
        <g
           id="g182"
           transform="translate(359.917,157.0889)">
          <path
             d="m 0,0 -40.021,23.106 c -0.696,0.402 -0.731,1.034 -0.079,1.41 0.654,0.377 1.746,0.357 2.443,-0.045 L 2.363,1.364 C 3.06,0.963 3.094,0.332 2.441,-0.045 1.789,-0.422 0.696,-0.401 0,0"
             style="fill:#ececec;fill-opacity:1;fill-rule:nonzero;stroke:none"
             id="path184" />
        </g>
        <g
           id="g186"
           transform="translate(291.4551,121.5654)">
          <path
             d="m 0,0 c -2.61,1.507 -6.843,1.507 -9.453,0 -2.611,-1.508 -2.611,-3.951 0,-5.459 2.61,-1.507 6.843,-1.507 9.453,0 2.61,1.508 2.61,3.951 0,5.459"
             style="fill:#e1e1e1;fill-opacity:1;fill-rule:nonzero;stroke:none"
             id="path188" />
        </g>
      </g>
    </g>
    <g
       id="g190">
      <g
         id="g192"
         clip-path="url(#clipPath196)">
        <g
           id="g198"
           transform="translate(228.6597,249.7241)">
          <path
             d="m 0,0 -37.502,-21.652 c -1.391,-0.803 -2.742,-2.737 -3.016,-4.32 l -9.319,-53.81 c -0.274,-1.583 0.631,-3.517 2.023,-4.32 l 24.181,-13.962 c 1.391,-0.803 3.647,-0.803 5.039,0 l 51.681,29.839 c 1.392,0.804 2.52,2.677 2.52,4.183 0,1.508 -1.128,3.381 -2.519,4.184 l -18.595,10.736 c -1.391,0.803 -2.652,2.75 -2.814,4.349 L 7.541,-4.168 C 7.378,-2.57 6.188,-0.664 4.883,0.09 3.578,0.844 1.392,0.803 0,0"
             style="fill:#1a2e35;fill-opacity:1;fill-rule:nonzero;stroke:none"
             id="path200" />
        </g>
        <g
           id="g202"
           transform="translate(207.5449,161.1211)">
          <path
             d="m 0,0 0.001,-10.063 c 0.912,0 1.824,0.201 2.52,0.602 l 51.681,29.839 c 1.392,0.804 2.52,2.677 2.52,4.184 0,0.881 -0.393,1.884 -0.992,2.729 h -8.461 z"
             style="fill:#2b454e;fill-opacity:1;fill-rule:nonzero;stroke:none"
             id="path204" />
        </g>
        <g
           id="g206"
           transform="translate(233.3867,246.9951)">
          <path
             d="m 0,0 -37.502,-21.651 c -1.392,-0.804 -2.742,-2.739 -3.016,-4.322 l -8.461,-48.846 c -0.273,-1.583 0.632,-3.518 2.023,-4.322 l 18.596,-10.736 c 1.391,-0.803 3.647,-0.803 5.039,0 l 51.682,29.839 c 1.391,0.804 1.391,2.106 0,2.909 L 9.766,-46.393 c -1.391,0.803 -2.652,2.75 -2.814,4.349 L 2.814,-1.439 C 2.651,0.159 1.391,0.804 0,0"
             style="fill:#1a2e35;fill-opacity:1;fill-rule:nonzero;stroke:none"
             id="path208" />
        </g>
        <g
           id="g210"
           transform="translate(261.7471,189.8662)">
          <path
             d="m 0,0 -18.595,10.736 c -0.686,0.396 -1.338,1.071 -1.844,1.844 l -56.543,-32.644 c 0.363,-0.815 0.948,-1.533 1.666,-1.948 l 18.595,-10.736 c 1.392,-0.803 3.648,-0.803 5.039,0 L 0,-2.909 C 1.392,-2.105 1.392,-0.803 0,0"
             style="fill:#375a64;fill-opacity:1;fill-rule:nonzero;stroke:none"
             id="path212" />
        </g>
        <g
           id="g214"
           transform="translate(109.4849,142.7041)">
          <path
             d="m 0,0 -2.4,1.386 c -1.948,1.125 -3.527,3.86 -3.527,6.109 l -0.001,161.052 c 0,2.249 1.581,4.981 3.532,6.1 l 196.755,112.962 c 1.951,1.12 5.111,1.117 7.059,-0.008 l 1.832,-1.058 c 1.947,-1.124 3.526,-3.859 3.526,-6.108 V 119.383 c 0,-2.249 -1.579,-4.984 -3.526,-6.109 L 7.054,0 C 5.106,-1.125 1.948,-1.125 0,0"
             style="fill:#375a64;fill-opacity:1;fill-rule:nonzero;stroke:none"
             id="path216" />
        </g>
        <g
           id="g218"
           transform="translate(117.7368,307.1367)">
          <path
             d="M 0,0 -13.145,7.589 C -13.785,6.485 -14.18,5.24 -14.18,4.114 l 10e-4,-161.051 c 0,-2.25 1.579,-4.985 3.527,-6.11 l 2.401,-1.386 c 1.947,-1.125 5.105,-1.125 7.053,0 L 0,-163.741 Z"
             style="fill:#1a2e35;fill-opacity:1;fill-rule:nonzero;stroke:none"
             id="path220" />
        </g>
        <g
           id="g222"
           transform="translate(113.0122,144.7402)">
          <path
             d="m 0,0 v 161.052 c 0,2.249 1.579,4.984 3.527,6.109 l 196.195,113.274 c 1.947,1.125 3.527,0.213 3.527,-2.037 V 117.347 c 0,-2.249 -1.58,-4.984 -3.527,-6.109 L 3.527,-2.036 C 1.579,-3.161 0,-2.249 0,0"
             style="fill:#2b454e;fill-opacity:1;fill-rule:nonzero;stroke:none"
             id="path224" />
        </g>
        <g
           id="g226"
           transform="translate(205.1392,204.7705)">
          <path
             d="m 0,0 18.595,10.735 c 1.391,0.804 2.52,0.233 2.52,-1.274 0,-1.507 -1.129,-3.38 -2.52,-4.184 L 0,-5.458 c -1.391,-0.804 -2.519,-0.233 -2.519,1.274 0,1.507 1.128,3.38 2.519,4.184"
             style="fill:#1a2e35;fill-opacity:1;fill-rule:nonzero;stroke:none"
             id="path228" />
        </g>
        <g
           id="g230"
           transform="translate(122.0493,306.9761)">
          <path
             d="m 0,0 184.775,106.981 c 1.112,0.644 2.015,0.124 2.015,-1.161 V -34.545 c 0,-1.286 -0.904,-2.849 -2.016,-3.491 L 0.001,-144.714 c -1.113,-0.643 -2.015,-0.122 -2.015,1.163 V -3.494 c 0,1.286 0.902,2.85 2.014,3.494"
             style="fill:#ffffff;fill-opacity:1;fill-rule:nonzero;stroke:none"
             id="path232" />
        </g>
      </g>
    </g>
    <g
       id="g234">
      <g
         id="g236"
         clip-path="url(#clipPath240)">
        <g
           id="g242"
           transform="translate(134.125,264.9282)">
          <path
             d="m 0,0 -1.882,1.087 c -1.391,0.804 -2.519,2.758 -2.519,4.365 v 26.929 c 0,1.607 1.128,3.561 2.52,4.364 L 68.708,77.5 c 1.391,0.803 3.647,0.803 5.038,-0.001 l 1.882,-1.087 c 1.391,-0.804 2.519,-2.758 2.519,-4.365 V 45.118 c 0,-1.607 -1.128,-3.561 -2.52,-4.364 L 5.039,0 C 3.647,-0.804 1.391,-0.804 0,0"
             style="fill:#00dfbf;fill-opacity:1;fill-rule:nonzero;stroke:none"
             id="path244" />
        </g>
        <g
           id="g246">
          <g
             id="g248" />
          <g
             id="g260">
            <g
               clip-path="url(#clipPath252)"
               opacity="0.399994"
               id="g258">
              <g
                 transform="translate(134.125,264.9282)"
                 id="g256">
                <path
                   d="m 0,0 -1.882,1.087 c -1.391,0.804 -2.519,2.758 -2.519,4.365 v 26.929 c 0,1.607 1.128,3.561 2.52,4.364 L 68.708,77.5 c 1.391,0.803 3.647,0.803 5.038,-0.001 l 1.882,-1.087 c 1.391,-0.804 2.519,-2.758 2.519,-4.365 V 45.118 c 0,-1.607 -1.128,-3.561 -2.52,-4.364 L 5.039,0 C 3.647,-0.804 1.391,-0.804 0,0"
                   style="fill:#00dfbf;fill-opacity:1;fill-rule:nonzero;stroke:none"
                   id="path254" />
              </g>
            </g>
          </g>
        </g>
        <g
           id="g262">
          <g
             id="g264" />
          <g
             id="g276">
            <g
               clip-path="url(#clipPath268)"
               opacity="0.300003"
               id="g274">
              <g
                 transform="translate(134.125,264.9282)"
                 id="g272">
                <path
                   d="m 0,0 -1.882,1.087 c -1.391,0.804 -2.519,2.758 -2.519,4.365 v 26.929 c 0,1.607 1.128,3.561 2.52,4.364 L 68.708,77.5 c 1.391,0.803 3.647,0.803 5.038,-0.001 l 1.882,-1.087 c 1.391,-0.804 2.519,-2.758 2.519,-4.365 V 45.118 c 0,-1.607 -1.128,-3.561 -2.52,-4.364 L 5.039,0 C 3.647,-0.804 1.391,-0.804 0,0"
                   style="fill:#ffffff;fill-opacity:1;fill-rule:nonzero;stroke:none"
                   id="path270" />
              </g>
            </g>
          </g>
        </g>
        <g
           id="g278"
           transform="translate(141.3706,293.4917)">
          <path
             d="M 0,0 -10.91,6.299 C -11.365,5.51 -11.646,4.621 -11.646,3.818 v -26.93 c 0,-1.606 1.127,-3.56 2.519,-4.364 l 1.881,-1.087 c 1.392,-0.804 3.647,-0.805 5.039,-0.001 L 0,-27.29 Z"
             style="fill:#00dfbf;fill-opacity:1;fill-rule:nonzero;stroke:none"
             id="path280" />
        </g>
        <g
           id="g282">
          <g
             id="g284" />
          <g
             id="g296">
            <g
               clip-path="url(#clipPath288)"
               opacity="0.199997"
               id="g294">
              <g
                 transform="translate(141.3706,293.4917)"
                 id="g292">
                <path
                   d="M 0,0 -10.91,6.299 C -11.365,5.51 -11.646,4.621 -11.646,3.818 v -26.93 c 0,-1.606 1.127,-3.56 2.519,-4.364 l 1.881,-1.087 c 1.392,-0.804 3.647,-0.805 5.039,-0.001 L 0,-27.29 Z"
                   style="fill:#000000;fill-opacity:1;fill-rule:nonzero;stroke:none"
                   id="path290" />
              </g>
            </g>
          </g>
        </g>
        <g
           id="g298"
           transform="translate(136.644,293.312)">
          <path
             d="m 0,0 v -26.93 c 0,-1.607 1.128,-2.258 2.52,-1.454 L 73.108,12.37 c 1.392,0.803 2.52,2.757 2.52,4.364 v 26.93 c 0,1.606 -1.128,2.257 -2.52,1.454 L 2.519,4.363 C 1.128,3.56 0,1.606 0,0"
             style="fill:#00dfbf;fill-opacity:1;fill-rule:nonzero;stroke:none"
             id="path300" />
        </g>
        <g
           id="g302"
           transform="translate(166.7949,308.1743)">
          <path
             d="m 0,0 24.418,14.098 c 0.989,0.57 1.791,0.31 1.791,-0.583 0,-0.893 -0.802,-2.079 -1.791,-2.651 L 0,-3.233 c -0.989,-0.571 -1.791,-0.31 -1.791,0.582 0,0.893 0.802,2.08 1.791,2.651"
             style="fill:#ffffff;fill-opacity:1;fill-rule:nonzero;stroke:none"
             id="path304" />
        </g>
        <g
           id="g306"
           transform="translate(166.5161,299.8223)">
          <path
             d="m 0,0 39.518,22.815 c 0.834,0.482 1.511,0.262 1.511,-0.491 0,-0.754 -0.677,-1.756 -1.511,-2.238 L 0,-2.729 c -0.835,-0.482 -1.512,-0.262 -1.512,0.492 0,0.753 0.677,1.755 1.512,2.237"
             style="fill:#ffffff;fill-opacity:1;fill-rule:nonzero;stroke:none"
             id="path308" />
        </g>
        <g
           id="g310"
           transform="translate(166.5161,294.3643)">
          <path
             d="m 0,0 39.518,22.815 c 0.834,0.482 1.511,0.262 1.511,-0.491 0,-0.754 -0.677,-1.756 -1.511,-2.238 L 0,-2.729 c -0.835,-0.482 -1.512,-0.262 -1.512,0.492 0,0.754 0.677,1.755 1.512,2.237"
             style="fill:#ffffff;fill-opacity:1;fill-rule:nonzero;stroke:none"
             id="path312" />
        </g>
        <g
           id="g314"
           transform="translate(166.5161,288.9067)">
          <path
             d="m 0,0 39.518,22.815 c 0.834,0.482 1.511,0.262 1.511,-0.492 0,-0.753 -0.677,-1.755 -1.511,-2.237 L 0,-2.729 c -0.835,-0.482 -1.512,-0.262 -1.512,0.492 0,0.753 0.677,1.755 1.512,2.237"
             style="fill:#ffffff;fill-opacity:1;fill-rule:nonzero;stroke:none"
             id="path316" />
        </g>
        <g
           id="g318"
           transform="translate(143.3862,294.6558)">
          <path
             d="m 0,0 14.876,8.588 c 1.113,0.643 2.016,0.122 2.016,-1.163 V -9.752 c 0,-1.286 -0.903,-2.849 -2.016,-3.492 L 0,-21.832 c -1.113,-0.643 -2.016,-0.122 -2.016,1.164 v 17.177 c 0,1.285 0.903,2.848 2.016,3.491"
             style="fill:#00dfbf;fill-opacity:1;fill-rule:nonzero;stroke:none"
             id="path320" />
        </g>
        <g
           id="g322">
          <g
             id="g324" />
          <g
             id="g336">
            <g
               clip-path="url(#clipPath328)"
               opacity="0.300003"
               id="g334">
              <g
                 transform="translate(143.3862,294.6558)"
                 id="g332">
                <path
                   d="m 0,0 14.876,8.588 c 1.113,0.643 2.016,0.122 2.016,-1.163 V -9.752 c 0,-1.286 -0.903,-2.849 -2.016,-3.492 L 0,-21.832 c -1.113,-0.643 -2.016,-0.122 -2.016,1.164 v 17.177 c 0,1.285 0.903,2.848 2.016,3.491"
                   style="fill:#ffffff;fill-opacity:1;fill-rule:nonzero;stroke:none"
                   id="path330" />
              </g>
            </g>
          </g>
        </g>
        <g
           id="g338"
           transform="translate(146.0103,292.9873)">
          <path
             d="m 0,0 c -1.124,-0.648 -2.073,-2.292 -2.073,-3.589 0,-0.505 0.147,-0.879 0.402,-1.026 0.256,-0.147 0.653,-0.088 1.089,0.165 1.124,0.649 2.073,2.292 2.073,3.589 0,0.506 -0.147,0.88 -0.401,1.027 C 0.834,0.312 0.437,0.252 0,0 m -1.348,-5.861 c -0.325,0 -0.631,0.079 -0.905,0.238 -0.635,0.366 -0.983,1.089 -0.983,2.034 0,1.718 1.166,3.737 2.654,4.597 C 0.237,1.481 1.037,1.539 1.672,1.173 2.306,0.808 2.655,0.085 2.655,-0.861 2.655,-2.579 1.489,-4.599 0,-5.458 -0.465,-5.725 -0.923,-5.861 -1.348,-5.861"
             style="fill:#ffffff;fill-opacity:1;fill-rule:nonzero;stroke:none"
             id="path340" />
        </g>
        <g
           id="g342"
           transform="translate(160.2778,290.958)">
          <path
             d="M 0,0 -2.834,3.013 C -3.119,3.315 -3.533,3.454 -3.94,3.386 -4.348,3.317 -4.694,3.052 -4.863,2.676 l -4.084,-9.009 -1.98,1.792 c -0.27,0.246 -0.635,0.358 -0.993,0.31 -0.361,-0.048 -0.682,-0.251 -0.879,-0.558 l -6.108,-9.493 v -2.161 l 7.199,11.04 6.566,-5.948 1.059,0.612 -3.959,3.586 4.238,9.348 0.122,0.02 L 0,-1.699 Z"
             style="fill:#ffffff;fill-opacity:1;fill-rule:nonzero;stroke:none"
             id="path344" />
        </g>
        <g
           id="g346"
           transform="translate(134.125,219.9287)">
          <path
             d="m 0,0 -1.882,1.087 c -1.391,0.804 -2.519,2.758 -2.519,4.364 v 26.93 c 0,1.607 1.128,3.56 2.52,4.364 l 70.589,40.754 c 1.391,0.803 3.647,0.803 5.038,0 l 1.882,-1.088 c 1.391,-0.804 2.519,-2.758 2.519,-4.364 v -26.93 c 0,-1.607 -1.128,-3.56 -2.52,-4.364 L 5.039,-0.001 C 3.647,-0.805 1.391,-0.805 0,0"
             style="fill:#00dfbf;fill-opacity:1;fill-rule:nonzero;stroke:none"
             id="path348" />
        </g>
        <g
           id="g350">
          <g
             id="g352" />
          <g
             id="g364">
            <g
               clip-path="url(#clipPath356)"
               opacity="0.399994"
               id="g362">
              <g
                 transform="translate(134.125,219.9287)"
                 id="g360">
                <path
                   d="m 0,0 -1.882,1.087 c -1.391,0.804 -2.519,2.758 -2.519,4.364 v 26.93 c 0,1.607 1.128,3.56 2.52,4.364 l 70.589,40.754 c 1.391,0.803 3.647,0.803 5.038,0 l 1.882,-1.088 c 1.391,-0.804 2.519,-2.758 2.519,-4.364 v -26.93 c 0,-1.607 -1.128,-3.56 -2.52,-4.364 L 5.039,-0.001 C 3.647,-0.805 1.391,-0.805 0,0"
                   style="fill:#00dfbf;fill-opacity:1;fill-rule:nonzero;stroke:none"
                   id="path358" />
              </g>
            </g>
          </g>
        </g>
        <g
           id="g366">
          <g
             id="g368" />
          <g
             id="g380">
            <g
               clip-path="url(#clipPath372)"
               opacity="0.300003"
               id="g378">
              <g
                 transform="translate(134.125,219.9287)"
                 id="g376">
                <path
                   d="m 0,0 -1.882,1.087 c -1.391,0.804 -2.519,2.758 -2.519,4.364 v 26.93 c 0,1.607 1.128,3.56 2.52,4.364 l 70.589,40.754 c 1.391,0.803 3.647,0.803 5.038,0 l 1.882,-1.088 c 1.391,-0.804 2.519,-2.758 2.519,-4.364 v -26.93 c 0,-1.607 -1.128,-3.56 -2.52,-4.364 L 5.039,-0.001 C 3.647,-0.805 1.391,-0.805 0,0"
                   style="fill:#ffffff;fill-opacity:1;fill-rule:nonzero;stroke:none"
                   id="path374" />
              </g>
            </g>
          </g>
        </g>
        <g
           id="g382"
           transform="translate(141.3706,248.4922)">
          <path
             d="M 0,0 -10.91,6.298 C -11.365,5.509 -11.646,4.62 -11.646,3.817 v -26.929 c 0,-1.607 1.127,-3.561 2.519,-4.365 l 1.881,-1.086 c 1.392,-0.805 3.647,-0.805 5.039,-0.001 L 0,-27.29 Z"
             style="fill:#00dfbf;fill-opacity:1;fill-rule:nonzero;stroke:none"
             id="path384" />
        </g>
        <g
           id="g386">
          <g
             id="g388" />
          <g
             id="g400">
            <g
               clip-path="url(#clipPath392)"
               opacity="0.199997"
               id="g398">
              <g
                 transform="translate(141.3706,248.4922)"
                 id="g396">
                <path
                   d="M 0,0 -10.91,6.298 C -11.365,5.509 -11.646,4.62 -11.646,3.817 v -26.929 c 0,-1.607 1.127,-3.561 2.519,-4.365 l 1.881,-1.086 c 1.392,-0.805 3.647,-0.805 5.039,-0.001 L 0,-27.29 Z"
                   style="fill:#000000;fill-opacity:1;fill-rule:nonzero;stroke:none"
                   id="path394" />
              </g>
            </g>
          </g>
        </g>
        <g
           id="g402"
           transform="translate(136.644,248.3115)">
          <path
             d="m 0,0 v -26.93 c 0,-1.606 1.128,-2.257 2.52,-1.454 l 70.588,40.755 c 1.392,0.803 2.52,2.756 2.52,4.363 v 26.93 c 0,1.607 -1.128,2.258 -2.52,1.455 L 2.519,4.364 C 1.128,3.561 0,1.607 0,0"
             style="fill:#00dfbf;fill-opacity:1;fill-rule:nonzero;stroke:none"
             id="path404" />
        </g>
        <g
           id="g406"
           transform="translate(166.7949,263.1743)">
          <path
             d="m 0,0 24.418,14.098 c 0.989,0.57 1.791,0.31 1.791,-0.583 0,-0.893 -0.802,-2.079 -1.791,-2.651 L 0,-3.233 c -0.989,-0.571 -1.791,-0.31 -1.791,0.582 0,0.893 0.802,2.08 1.791,2.651"
             style="fill:#ffffff;fill-opacity:1;fill-rule:nonzero;stroke:none"
             id="path408" />
        </g>
        <g
           id="g410"
           transform="translate(166.5161,254.8223)">
          <path
             d="m 0,0 39.518,22.815 c 0.834,0.482 1.511,0.262 1.511,-0.491 0,-0.754 -0.677,-1.756 -1.511,-2.238 L 0,-2.729 c -0.835,-0.482 -1.512,-0.262 -1.512,0.492 0,0.753 0.677,1.755 1.512,2.237"
             style="fill:#ffffff;fill-opacity:1;fill-rule:nonzero;stroke:none"
             id="path412" />
        </g>
        <g
           id="g414"
           transform="translate(166.5161,249.3643)">
          <path
             d="m 0,0 39.518,22.815 c 0.834,0.482 1.511,0.262 1.511,-0.491 0,-0.754 -0.677,-1.756 -1.511,-2.238 L 0,-2.729 c -0.835,-0.482 -1.512,-0.261 -1.512,0.492 0,0.754 0.677,1.755 1.512,2.237"
             style="fill:#ffffff;fill-opacity:1;fill-rule:nonzero;stroke:none"
             id="path416" />
        </g>
        <g
           id="g418"
           transform="translate(166.5161,243.9062)">
          <path
             d="m 0,0 39.518,22.816 c 0.834,0.482 1.511,0.262 1.511,-0.492 0,-0.754 -0.677,-1.755 -1.511,-2.237 L 0,-2.729 c -0.835,-0.482 -1.512,-0.261 -1.512,0.492 0,0.754 0.677,1.756 1.512,2.237"
             style="fill:#ffffff;fill-opacity:1;fill-rule:nonzero;stroke:none"
             id="path420" />
        </g>
        <g
           id="g422"
           transform="translate(143.3862,249.6558)">
          <path
             d="m 0,0 14.876,8.588 c 1.113,0.643 2.016,0.122 2.016,-1.163 V -9.752 c 0,-1.286 -0.903,-2.849 -2.016,-3.492 L 0,-21.833 c -1.113,-0.642 -2.016,-0.121 -2.016,1.165 v 17.177 c 0,1.285 0.903,2.848 2.016,3.491"
             style="fill:#00dfbf;fill-opacity:1;fill-rule:nonzero;stroke:none"
             id="path424" />
        </g>
        <g
           id="g426">
          <g
             id="g428" />
          <g
             id="g440">
            <g
               clip-path="url(#clipPath432)"
               opacity="0.300003"
               id="g438">
              <g
                 transform="translate(143.3862,249.6558)"
                 id="g436">
                <path
                   d="m 0,0 14.876,8.588 c 1.113,0.643 2.016,0.122 2.016,-1.163 V -9.752 c 0,-1.286 -0.903,-2.849 -2.016,-3.492 L 0,-21.833 c -1.113,-0.642 -2.016,-0.121 -2.016,1.165 v 17.177 c 0,1.285 0.903,2.848 2.016,3.491"
                   style="fill:#ffffff;fill-opacity:1;fill-rule:nonzero;stroke:none"
                   id="path434" />
              </g>
            </g>
          </g>
        </g>
        <g
           id="g442"
           transform="translate(146.0103,247.9873)">
          <path
             d="m 0,0 c -1.124,-0.648 -2.073,-2.292 -2.073,-3.589 0,-0.505 0.147,-0.879 0.402,-1.026 0.256,-0.148 0.653,-0.087 1.089,0.165 1.124,0.648 2.073,2.293 2.073,3.59 0,0.505 -0.147,0.879 -0.401,1.026 C 0.834,0.312 0.437,0.253 0,0 m -1.348,-5.86 c -0.325,0 -0.631,0.079 -0.905,0.237 -0.635,0.366 -0.983,1.089 -0.983,2.034 0,1.718 1.166,3.737 2.654,4.597 C 0.237,1.481 1.037,1.539 1.672,1.173 2.306,0.808 2.655,0.085 2.655,-0.86 2.655,-2.579 1.489,-4.599 0,-5.458 -0.465,-5.726 -0.923,-5.86 -1.348,-5.86"
             style="fill:#ffffff;fill-opacity:1;fill-rule:nonzero;stroke:none"
             id="path444" />
        </g>
        <g
           id="g446"
           transform="translate(160.2778,245.958)">
          <path
             d="M 0,0 -2.834,3.013 C -3.119,3.315 -3.533,3.454 -3.94,3.386 -4.348,3.317 -4.694,3.052 -4.863,2.676 l -4.084,-9.009 -1.98,1.793 c -0.27,0.244 -0.635,0.357 -0.993,0.309 -0.361,-0.048 -0.682,-0.251 -0.879,-0.558 l -6.108,-9.492 v -2.162 l 7.199,11.04 6.566,-5.948 1.059,0.612 -3.959,3.586 4.238,9.348 0.122,0.02 L 0,-1.699 Z"
             style="fill:#ffffff;fill-opacity:1;fill-rule:nonzero;stroke:none"
             id="path448" />
        </g>
        <g
           id="g450"
           transform="translate(134.125,175.9287)">
          <path
             d="m 0,0 -1.882,1.087 c -1.391,0.804 -2.519,2.758 -2.519,4.364 v 26.93 c 0,1.606 1.128,3.56 2.52,4.363 l 70.589,40.755 c 1.391,0.803 3.647,0.803 5.038,0 l 1.882,-1.088 c 1.391,-0.804 2.519,-2.758 2.519,-4.364 v -26.93 c 0,-1.606 -1.128,-3.56 -2.52,-4.364 L 5.039,-0.001 C 3.647,-0.805 1.391,-0.805 0,0"
             style="fill:#00dfbf;fill-opacity:1;fill-rule:nonzero;stroke:none"
             id="path452" />
        </g>
        <g
           id="g454">
          <g
             id="g456" />
          <g
             id="g468">
            <g
               clip-path="url(#clipPath460)"
               opacity="0.399994"
               id="g466">
              <g
                 transform="translate(134.125,175.9287)"
                 id="g464">
                <path
                   d="m 0,0 -1.882,1.087 c -1.391,0.804 -2.519,2.758 -2.519,4.364 v 26.93 c 0,1.606 1.128,3.56 2.52,4.363 l 70.589,40.755 c 1.391,0.803 3.647,0.803 5.038,0 l 1.882,-1.088 c 1.391,-0.804 2.519,-2.758 2.519,-4.364 v -26.93 c 0,-1.606 -1.128,-3.56 -2.52,-4.364 L 5.039,-0.001 C 3.647,-0.805 1.391,-0.805 0,0"
                   style="fill:#00dfbf;fill-opacity:1;fill-rule:nonzero;stroke:none"
                   id="path462" />
              </g>
            </g>
          </g>
        </g>
        <g
           id="g470">
          <g
             id="g472" />
          <g
             id="g484">
            <g
               clip-path="url(#clipPath476)"
               opacity="0.300003"
               id="g482">
              <g
                 transform="translate(134.125,175.9287)"
                 id="g480">
                <path
                   d="m 0,0 -1.882,1.087 c -1.391,0.804 -2.519,2.758 -2.519,4.364 v 26.93 c 0,1.606 1.128,3.56 2.52,4.363 l 70.589,40.755 c 1.391,0.803 3.647,0.803 5.038,0 l 1.882,-1.088 c 1.391,-0.804 2.519,-2.758 2.519,-4.364 v -26.93 c 0,-1.606 -1.128,-3.56 -2.52,-4.364 L 5.039,-0.001 C 3.647,-0.805 1.391,-0.805 0,0"
                   style="fill:#ffffff;fill-opacity:1;fill-rule:nonzero;stroke:none"
                   id="path478" />
              </g>
            </g>
          </g>
        </g>
        <g
           id="g486"
           transform="translate(141.3706,204.4922)">
          <path
             d="M 0,0 -10.91,6.299 C -11.365,5.51 -11.646,4.62 -11.646,3.817 v -26.929 c 0,-1.607 1.127,-3.561 2.519,-4.365 l 1.881,-1.086 c 1.392,-0.805 3.647,-0.805 5.039,-0.001 L 0,-27.29 Z"
             style="fill:#00dfbf;fill-opacity:1;fill-rule:nonzero;stroke:none"
             id="path488" />
        </g>
        <g
           id="g490">
          <g
             id="g492" />
          <g
             id="g504">
            <g
               clip-path="url(#clipPath496)"
               opacity="0.199997"
               id="g502">
              <g
                 transform="translate(141.3706,204.4922)"
                 id="g500">
                <path
                   d="M 0,0 -10.91,6.299 C -11.365,5.51 -11.646,4.62 -11.646,3.817 v -26.929 c 0,-1.607 1.127,-3.561 2.519,-4.365 l 1.881,-1.086 c 1.392,-0.805 3.647,-0.805 5.039,-0.001 L 0,-27.29 Z"
                   style="fill:#000000;fill-opacity:1;fill-rule:nonzero;stroke:none"
                   id="path498" />
              </g>
            </g>
          </g>
        </g>
        <g
           id="g506"
           transform="translate(136.644,204.3115)">
          <path
             d="m 0,0 v -26.93 c 0,-1.606 1.128,-2.257 2.52,-1.454 L 73.108,12.37 c 1.392,0.804 2.52,2.758 2.52,4.364 v 26.93 c 0,1.607 -1.128,2.258 -2.52,1.455 L 2.519,4.364 C 1.128,3.561 0,1.607 0,0"
             style="fill:#00dfbf;fill-opacity:1;fill-rule:nonzero;stroke:none"
             id="path508" />
        </g>
        <g
           id="g510"
           transform="translate(166.7949,219.1738)">
          <path
             d="m 0,0 24.418,14.098 c 0.989,0.571 1.791,0.31 1.791,-0.582 0,-0.893 -0.802,-2.08 -1.791,-2.651 L 0,-3.232 c -0.989,-0.572 -1.791,-0.311 -1.791,0.582 0,0.892 0.802,2.08 1.791,2.65"
             style="fill:#ffffff;fill-opacity:1;fill-rule:nonzero;stroke:none"
             id="path512" />
        </g>
        <g
           id="g514"
           transform="translate(166.5161,210.8223)">
          <path
             d="m 0,0 39.518,22.815 c 0.834,0.482 1.511,0.262 1.511,-0.492 0,-0.753 -0.677,-1.755 -1.511,-2.237 L 0,-2.729 c -0.835,-0.482 -1.512,-0.262 -1.512,0.492 0,0.754 0.677,1.755 1.512,2.237"
             style="fill:#ffffff;fill-opacity:1;fill-rule:nonzero;stroke:none"
             id="path516" />
        </g>
        <g
           id="g518"
           transform="translate(166.5161,205.3643)">
          <path
             d="m 0,0 39.518,22.815 c 0.834,0.483 1.511,0.262 1.511,-0.491 0,-0.754 -0.677,-1.756 -1.511,-2.237 L 0,-2.729 c -0.835,-0.482 -1.512,-0.261 -1.512,0.492 0,0.754 0.677,1.755 1.512,2.237"
             style="fill:#ffffff;fill-opacity:1;fill-rule:nonzero;stroke:none"
             id="path520" />
        </g>
        <g
           id="g522"
           transform="translate(166.5161,199.9062)">
          <path
             d="m 0,0 39.518,22.815 c 0.834,0.483 1.511,0.262 1.511,-0.491 0,-0.754 -0.677,-1.756 -1.511,-2.237 L 0,-2.729 c -0.835,-0.482 -1.512,-0.261 -1.512,0.492 0,0.754 0.677,1.756 1.512,2.237"
             style="fill:#ffffff;fill-opacity:1;fill-rule:nonzero;stroke:none"
             id="path524" />
        </g>
        <g
           id="g526"
           transform="translate(143.3862,205.6553)">
          <path
             d="m 0,0 14.876,8.589 c 1.113,0.642 2.016,0.122 2.016,-1.164 V -9.752 c 0,-1.285 -0.903,-2.849 -2.016,-3.491 L 0,-21.832 c -1.113,-0.643 -2.016,-0.121 -2.016,1.164 V -3.49 c 0,1.285 0.903,2.847 2.016,3.49"
             style="fill:#00dfbf;fill-opacity:1;fill-rule:nonzero;stroke:none"
             id="path528" />
        </g>
        <g
           id="g530">
          <g
             id="g532" />
          <g
             id="g544">
            <g
               clip-path="url(#clipPath536)"
               opacity="0.300003"
               id="g542">
              <g
                 transform="translate(143.3862,205.6553)"
                 id="g540">
                <path
                   d="m 0,0 14.876,8.589 c 1.113,0.642 2.016,0.122 2.016,-1.164 V -9.752 c 0,-1.285 -0.903,-2.849 -2.016,-3.491 L 0,-21.832 c -1.113,-0.643 -2.016,-0.121 -2.016,1.164 V -3.49 c 0,1.285 0.903,2.847 2.016,3.49"
                   style="fill:#ffffff;fill-opacity:1;fill-rule:nonzero;stroke:none"
                   id="path538" />
              </g>
            </g>
          </g>
        </g>
        <g
           id="g546"
           transform="translate(146.0103,203.9873)">
          <path
             d="m 0,0 c -1.124,-0.648 -2.073,-2.292 -2.073,-3.589 0,-0.505 0.147,-0.879 0.402,-1.026 0.256,-0.148 0.653,-0.087 1.089,0.165 1.124,0.648 2.073,2.293 2.073,3.59 0,0.505 -0.147,0.879 -0.401,1.026 C 0.834,0.312 0.437,0.253 0,0 m -1.348,-5.86 c -0.325,0 -0.631,0.079 -0.905,0.237 -0.635,0.366 -0.983,1.089 -0.983,2.034 0,1.718 1.166,3.737 2.654,4.597 C 0.237,1.48 1.037,1.539 1.672,1.174 2.306,0.808 2.655,0.085 2.655,-0.86 2.655,-2.579 1.489,-4.599 0,-5.458 -0.465,-5.726 -0.923,-5.86 -1.348,-5.86"
             style="fill:#ffffff;fill-opacity:1;fill-rule:nonzero;stroke:none"
             id="path548" />
        </g>
        <g
           id="g550"
           transform="translate(160.2778,201.958)">
          <path
             d="M 0,0 -2.834,3.013 C -3.119,3.314 -3.533,3.454 -3.94,3.386 -4.348,3.317 -4.694,3.053 -4.863,2.676 l -4.084,-9.009 -1.98,1.793 c -0.27,0.244 -0.635,0.357 -0.993,0.309 -0.361,-0.048 -0.682,-0.251 -0.879,-0.558 l -6.108,-9.492 v -2.162 l 7.199,11.04 6.566,-5.948 1.059,0.612 -3.959,3.586 4.238,9.348 0.122,0.02 L 0,-1.699 Z"
             style="fill:#ffffff;fill-opacity:1;fill-rule:nonzero;stroke:none"
             id="path552" />
        </g>
        <g
           id="g554"
           transform="translate(223.9331,229.459)">
          <path
             d="m 0,0 -1.882,1.087 c -1.391,0.804 -2.519,2.758 -2.519,4.364 v 114.248 c 0,1.607 1.128,3.56 2.52,4.364 l 108.395,62.592 c 1.392,0.804 3.648,0.803 5.038,0 l 1.882,-1.088 c 1.392,-0.803 2.52,-2.757 2.52,-4.364 V 66.956 c 0,-1.607 -1.128,-3.561 -2.52,-4.364 L 5.039,-0.001 C 3.647,-0.805 1.391,-0.804 0,0"
             style="fill:#00dfbf;fill-opacity:1;fill-rule:nonzero;stroke:none"
             id="path556" />
        </g>
        <g
           id="g558"
           transform="translate(231.1787,345.3403)">
          <path
             d="M 0,0 -10.91,6.299 C -11.365,5.509 -11.646,4.62 -11.646,3.818 V -110.43 c 0,-1.607 1.127,-3.561 2.519,-4.364 l 1.881,-1.087 c 1.392,-0.804 3.647,-0.805 5.039,-0.001 L 0,-114.608 Z"
             style="fill:#e7e7e7;fill-opacity:1;fill-rule:nonzero;stroke:none"
             id="path560" />
        </g>
        <g
           id="g562"
           transform="translate(231.1787,345.3403)">
          <path
             d="m 0,0 -10.91,6.299 c -0.455,-0.79 -0.736,-1.679 -0.736,-2.481 v -5.277 l 6.919,-3.994 z"
             style="fill:#00dfbf;fill-opacity:1;fill-rule:nonzero;stroke:none"
             id="path564" />
        </g>
        <g
           id="g566">
          <g
             id="g568" />
          <g
             id="g580">
            <g
               clip-path="url(#clipPath572)"
               opacity="0.199997"
               id="g578">
              <g
                 transform="translate(231.1787,345.3403)"
                 id="g576">
                <path
                   d="m 0,0 -10.91,6.299 c -0.455,-0.79 -0.736,-1.679 -0.736,-2.481 v -5.277 l 6.919,-3.994 z"
                   style="fill:#000000;fill-opacity:1;fill-rule:nonzero;stroke:none"
                   id="path574" />
              </g>
            </g>
          </g>
        </g>
        <g
           id="g582"
           transform="translate(226.4517,345.1602)">
          <path
             d="m 0,0 v -114.248 c 0,-1.606 1.128,-2.258 2.52,-1.454 l 108.396,62.593 c 1.391,0.803 2.519,2.756 2.519,4.363 V 65.502 c 0,1.607 -1.128,2.258 -2.519,1.455 L 2.52,4.364 C 1.128,3.561 0,1.606 0,0"
             style="fill:#f5f5f5;fill-opacity:1;fill-rule:nonzero;stroke:none"
             id="path584" />
        </g>
        <g
           id="g586"
           transform="translate(238.2686,340.8491)">
          <path
             d="m 0,0 c 3.916,2.261 7.09,0.428 7.09,-4.093 0,-4.522 -3.174,-10.02 -7.09,-12.281 -3.916,-2.261 -7.09,-0.428 -7.09,4.093 0,4.522 3.174,10.02 7.09,12.281"
             style="fill:#00dfbf;fill-opacity:1;fill-rule:nonzero;stroke:none"
             id="path588" />
        </g>
        <g
           id="g590"
           transform="translate(252.6055,346.5566)">
          <path
             d="m 0,0 23.321,13.465 c 1.392,0.803 2.52,0.233 2.52,-1.275 0,-1.507 -1.128,-3.38 -2.52,-4.183 L 0,-5.458 c -1.392,-0.803 -2.52,-0.233 -2.52,1.274 0,1.508 1.128,3.381 2.52,4.184"
             style="fill:#00dfbf;fill-opacity:1;fill-rule:nonzero;stroke:none"
             id="path592" />
        </g>
        <g
           id="g594"
           transform="translate(251.3457,336.8677)">
          <path
             d="m 0,0 16.388,9.461 c 0.695,0.402 1.259,0.117 1.259,-0.637 0,-0.754 -0.564,-1.69 -1.259,-2.092 L 0,-2.729 c -0.696,-0.402 -1.26,-0.117 -1.26,0.637 0,0.754 0.564,1.69 1.26,2.092"
             style="fill:#00dfbf;fill-opacity:1;fill-rule:nonzero;stroke:none"
             id="path596" />
        </g>
        <g
           id="g598"
           transform="translate(233.6978,316.3784)">
          <path
             d="m 0,0 98.95,57.128 c 1.391,0.804 2.519,0.153 2.519,-1.454 V -14.92 c 0,-1.606 -1.128,-3.56 -2.519,-4.363 L -0.048,-76.44 c -1.391,-0.804 -2.472,-0.152 -2.471,1.454 L -2.521,-4.363 C -2.52,-2.757 -1.392,-0.803 0,0"
             style="fill:#00dfbf;fill-opacity:1;fill-rule:nonzero;stroke:none"
             id="path600" />
        </g>
        <g
           id="g602"
           transform="translate(308.9229,342.5469)">
          <path
             d="M 0,0 C -0.242,0 -0.529,-0.09 -0.834,-0.266 L -50.13,-28.727 c -1.208,-0.696 -2.227,-2.464 -2.227,-3.859 v -37.846 c 0,-0.552 0.162,-0.963 0.446,-1.127 0.283,-0.163 0.721,-0.099 1.2,0.177 l 49.295,28.46 c 1.208,0.697 2.228,2.465 2.228,3.86 v 37.845 c 0,0.552 -0.162,0.964 -0.447,1.128 C 0.262,-0.03 0.139,0 0,0 m -51.547,-72.814 c -0.341,0 -0.66,0.082 -0.946,0.247 -0.664,0.384 -1.028,1.142 -1.028,2.135 v 37.846 c 0,1.82 1.234,3.958 2.81,4.868 l 49.295,28.46 c 0.86,0.497 1.7,0.561 2.363,0.176 0.663,-0.383 1.03,-1.141 1.03,-2.135 v -37.845 c 0,-1.82 -1.235,-3.958 -2.811,-4.868 L -50.13,-72.39 c -0.488,-0.282 -0.97,-0.424 -1.417,-0.424"
             style="fill:#ffffff;fill-opacity:1;fill-rule:nonzero;stroke:none"
             id="path604" />
        </g>
        <g
           id="g606"
           transform="translate(266.5596,313.1567)">
          <path
             d="m 0,0 c -2.445,-1.412 -4.436,-4.858 -4.436,-7.683 0,-1.241 0.389,-2.149 1.094,-2.556 0.706,-0.407 1.685,-0.29 2.76,0.331 2.446,1.412 4.436,4.859 4.436,7.683 0,1.242 -0.388,2.149 -1.093,2.557 C 2.055,0.738 1.073,0.621 0,0 m -2.403,-11.642 c -0.551,0 -1.063,0.131 -1.521,0.395 -1.08,0.624 -1.676,1.89 -1.676,3.564 0,3.25 2.204,7.067 5.018,8.691 1.45,0.838 2.843,0.954 3.925,0.331 1.08,-0.624 1.675,-1.889 1.675,-3.564 0,-3.249 -2.205,-7.067 -5.018,-8.691 -0.837,-0.482 -1.653,-0.726 -2.403,-0.726"
             style="fill:#ffffff;fill-opacity:1;fill-rule:nonzero;stroke:none"
             id="path608" />
        </g>
        <g
           id="g610"
           transform="translate(256.4687,275.7783)">
          <path
             d="m 0,0 -0.971,0.643 17.135,25.863 c 0.511,0.768 1.548,0.978 2.316,0.471 L 36.479,15.069 35.836,14.098 17.837,26.006 c -0.232,0.155 -0.549,0.09 -0.702,-0.142 z"
             style="fill:#ffffff;fill-opacity:1;fill-rule:nonzero;stroke:none"
             id="path612" />
        </g>
        <g
           id="g614"
           transform="translate(283.2432,296.6357)">
          <path
             d="m 0,0 -1.027,0.548 13.423,25.169 c 0.263,0.491 0.75,0.819 1.304,0.876 0.546,0.056 1.098,-0.164 1.455,-0.592 L 27.521,11.176 26.628,10.431 14.262,25.256 c -0.111,0.132 -0.277,0.2 -0.443,0.18 -0.17,-0.018 -0.314,-0.115 -0.395,-0.267 z"
             style="fill:#ffffff;fill-opacity:1;fill-rule:nonzero;stroke:none"
             id="path616" />
        </g>
        <g
           id="g618"
           transform="translate(339.8867,410.6621)">
          <path
             d="m 0,0 c 0,1.607 -1.128,2.258 -2.52,1.455 l -108.396,-62.593 c -1.391,-0.803 -2.519,-2.757 -2.519,-4.364 v -5.273 L 0,-5.283 Z"
             style="fill:#00dfbf;fill-opacity:1;fill-rule:nonzero;stroke:none"
             id="path620" />
        </g>
        <g
           id="g622">
          <g
             id="g624" />
          <g
             id="g636">
            <g
               clip-path="url(#clipPath628)"
               opacity="0.100006"
               id="g634">
              <g
                 transform="translate(339.8867,410.6621)"
                 id="g632">
                <path
                   d="m 0,0 c 0,1.607 -1.128,2.258 -2.52,1.455 l -108.396,-62.593 c -1.391,-0.803 -2.519,-2.757 -2.519,-4.364 v -5.273 L 0,-5.283 Z"
                   style="fill:#000000;fill-opacity:1;fill-rule:nonzero;stroke:none"
                   id="path630" />
              </g>
            </g>
          </g>
        </g>
      </g>
    </g>
    <g
       id="g638">
      <g
         id="g640"
         clip-path="url(#clipPath644)">
        <g
           id="g646"
           transform="translate(373.4697,287.6055)">
          <path
             d="m 0,0 c -2.928,-3.498 -8.267,-10.176 -11.01,-13.619 -1.44,-1.808 -2.258,-4.049 -2.224,-6.36 0.024,-1.715 0.49,-3.147 2.167,-2.416 1.211,0.527 1.981,1.156 3.749,2.898 1.589,1.568 7.221,8.338 7.221,8.338 0,0 4.317,11.361 6.693,12.082 2.377,0.721 4.022,0.536 4.022,0.536 C 7.751,2.438 3.714,4.438 0,0"
             style="fill:#ff9090;fill-opacity:1;fill-rule:nonzero;stroke:none"
             id="path648" />
        </g>
        <g
           id="g650"
           transform="translate(385.5059,291.3408)">
          <path
             d="m 0,0 c -2.932,2.206 -7.9,1.631 -10.646,-1.691 -2.012,-2.434 -6.802,-8.373 -6.802,-8.373 0,0 1.372,-3.815 6.169,-5.526 z"
             style="fill:#00dfbf;fill-opacity:1;fill-rule:nonzero;stroke:none"
             id="path652" />
        </g>
        <g
           id="g654">
          <g
             id="g656" />
          <g
             id="g668">
            <g
               clip-path="url(#clipPath660)"
               opacity="0.100006"
               id="g666">
              <g
                 transform="translate(385.5059,291.3408)"
                 id="g664">
                <path
                   d="m 0,0 c -2.932,2.206 -7.9,1.631 -10.646,-1.691 -2.012,-2.434 -6.802,-8.373 -6.802,-8.373 0,0 1.372,-3.815 6.169,-5.526 z"
                   style="fill:#000000;fill-opacity:1;fill-rule:nonzero;stroke:none"
                   id="path662" />
              </g>
            </g>
          </g>
        </g>
        <g
           id="g670"
           transform="translate(340.3818,200.8359)">
          <path
             d="m 0,0 -17.495,-19.971 c -0.509,-0.58 -1.464,-0.184 -1.414,0.586 l 1.746,26.647 z"
             style="fill:#375a64;fill-opacity:1;fill-rule:nonzero;stroke:none"
             id="path672" />
        </g>
        <g
           id="g674"
           transform="translate(321.4727,181.4512)">
          <path
             d="M 0,0 C -0.05,-0.771 0.905,-1.166 1.414,-0.586 L 4.83,3.313 C 3.162,3.141 1.539,3.915 0.623,5.318 L 0.374,5.699 Z"
             style="fill:#1a2e35;fill-opacity:1;fill-rule:nonzero;stroke:none"
             id="path676" />
        </g>
        <g
           id="g678"
           transform="translate(366.0215,311.5942)">
          <path
             d="m 0,0 -0.937,-2.271 -1.144,-2.737 -40.723,-98.487 c 0.967,-2.83 3.234,-4.995 5.859,-6.393 3.991,-2.144 8.826,-2.531 11.295,-0.864 l 40.421,97.759 2.165,5.239 C 15.346,-11.067 -1.55,-3.346 0,0"
             style="fill:#2b454e;fill-opacity:1;fill-rule:nonzero;stroke:none"
             id="path680" />
        </g>
        <g
           id="g682"
           transform="translate(362.4189,302.96)">
          <path
             d="m 0,0 -2.088,-5.075 c -0.654,-1.451 2.091,-3.687 5.574,-5.505 4.619,-2.426 10.531,-4.114 11.401,-2.193 l 1.53,3.745 0.553,1.341 C 16.099,-9.609 10.179,-7.926 5.559,-5.5 c -3.335,1.747 -6,3.892 -5.611,5.336 l 0.006,0.015 C -0.044,-0.097 -0.027,-0.051 0,0"
             style="fill:#375a64;fill-opacity:1;fill-rule:nonzero;stroke:none"
             id="path684" />
        </g>
        <g
           id="g686"
           transform="translate(361.9092,301.689)">
          <path
             d="m 0,0 c -1.526,-3.367 15.445,-11.058 16.972,-7.691 l 2.106,5.073 C 17.552,-5.985 0.583,1.706 2.108,5.073 Z"
             style="fill:#2b454e;fill-opacity:1;fill-rule:nonzero;stroke:none"
             id="path688" />
        </g>
        <g
           id="g690"
           transform="translate(366.0215,311.5942)">
          <path
             d="m 0,0 -2.081,-5.008 c -1.523,-3.295 14.787,-10.88 16.852,-7.985 0.042,0.046 0.076,0.112 0.109,0.179 l 2.056,5.06 C 15.346,-11.067 -1.55,-3.346 0,0"
             style="fill:#375a64;fill-opacity:1;fill-rule:nonzero;stroke:none"
             id="path692" />
        </g>
        <g
           id="g694"
           transform="translate(374.8359,332.8491)">
          <path
             d="m 0,0 -8.814,-21.255 c -0.665,-1.43 2.04,-3.66 5.486,-5.481 4.614,-2.442 10.544,-4.172 11.449,-2.273 0.011,0.005 0.011,0.005 0.017,0.02 l 8.474,20.447 C 18.981,-3.936 10.812,1.858 4.938,2.199 2.741,2.342 0.885,1.724 0,0"
             style="fill:#1a2e35;fill-opacity:1;fill-rule:nonzero;stroke:none"
             id="path696" />
        </g>
        <g
           id="g698"
           transform="translate(388.4785,308.6909)">
          <path
             d="m 0,0 c 0,-3.932 -3.188,-7.119 -7.118,-7.119 -3.932,0 -7.119,3.187 -7.119,7.119 0,3.931 3.187,7.119 7.119,7.119 C -3.188,7.119 0,3.931 0,0"
             style="fill:#1a2e35;fill-opacity:1;fill-rule:nonzero;stroke:none"
             id="path700" />
        </g>
        <path
           d="m 398.407,179.652 h -5.015 v 8.585 h 5.015 z"
           style="fill:#ffaaa8;fill-opacity:1;fill-rule:nonzero;stroke:none"
           id="path702" />
        <g
           id="g704"
           transform="translate(381.0215,188.6953)">
          <path
             d="m 0,0 -5.012,-0.173 -0.251,9.085 5.012,0.172 z"
             style="fill:#ffaaa8;fill-opacity:1;fill-rule:nonzero;stroke:none"
             id="path706" />
        </g>
        <g
           id="g708"
           transform="translate(398.0781,256.2827)">
          <path
             d="m 0,0 c 0,-4.789 0.619,-33.805 0.619,-33.805 0.116,-1.378 1.408,-3.919 1.129,-9.211 -0.38,-7.189 -1.001,-25.877 -1.001,-25.877 0,0 -2.351,-2.33 -5.671,0 0,0 -4.54,25.852 -5.439,32.976 -0.784,6.217 -2.115,23.108 -2.115,23.108 l -4.646,-19.882 c 0,0 0.818,-4.673 0.998,-7.972 0.18,-3.298 -0.852,-20.564 -0.852,-20.564 0,0 -2.548,-1.762 -5.456,-0.208 0,0 -4.028,26.05 -4.545,29.029 -0.517,2.98 3.526,32.406 3.526,32.406 z"
             style="fill:#2b454e;fill-opacity:1;fill-rule:nonzero;stroke:none"
             id="path710" />
        </g>
        <g
           id="g712"
           transform="translate(393.2607,290.9219)">
          <path
             d="m 0,0 c 2.185,-0.388 3.927,-2.044 4.405,-4.21 0.238,-1.077 0.412,-2.359 0.412,-3.808 v -9.825 -16.796 c -3.516,-3.826 -15.775,-5.608 -23.453,0 0,0 0.151,23.514 0.726,27.377 0.999,6.711 4.212,9.105 7.438,8.855 l 7.741,-1.108 z"
             style="fill:#00dfbf;fill-opacity:1;fill-rule:nonzero;stroke:none"
             id="path714" />
        </g>
        <g
           id="g716"
           transform="translate(393.665,303.6294)">
          <path
             d="m 0,0 c 0,0 -1.153,-5.42 -1.616,-6.31 -0.462,-0.891 -1.418,-1.144 -1.418,-1.144 l 0.08,3.813 z"
             style="fill:#1a2e35;fill-opacity:1;fill-rule:nonzero;stroke:none"
             id="path718" />
        </g>
        <g
           id="g720"
           transform="translate(392.2178,311.3931)">
          <path
             d="M 0,0 C 0,0 1.242,0.213 2.211,-0.777 3.16,-1.748 2.63,-4.787 1.447,-7.764 l -2.173,-0.249 z"
             style="fill:#1a2e35;fill-opacity:1;fill-rule:nonzero;stroke:none"
             id="path722" />
        </g>
        <g
           id="g724"
           transform="translate(390.8408,303.3779)">
          <path
             d="M 0,0 C 0.436,-0.26 1.058,0.577 1.595,1.139 2.132,1.701 3.886,2.469 4.761,0.626 5.652,-1.253 3.988,-3.736 2.607,-4.169 0.228,-4.917 -0.13,-3.39 -0.13,-3.39 l -0.182,-8.584 c 0,0 -1.557,-3.813 -5.777,-4.385 -4.22,-0.572 -3.35,2.907 -1.965,4.612 l 0.007,2.612 c 0,0 -2.157,-0.327 -3.209,-0.164 -1.75,0.27 -2.851,1.651 -3.382,3.546 -0.852,3.043 -1.176,5.5 -0.453,11.484 0.793,6.559 8.422,6.627 12.542,4.034 C 1.571,7.172 0,0 0,0"
             style="fill:#ffaaa8;fill-opacity:1;fill-rule:nonzero;stroke:none"
             id="path726" />
        </g>
        <g
           id="g728"
           transform="translate(390.8408,302.645)">
          <path
             d="m 0,0 c 0.219,-0.004 1.053,1.378 1.595,1.872 0.751,0.684 -0.218,6.876 -0.218,6.876 0,0 0.722,1.54 -0.726,3.132 -1.029,1.133 -2.75,1.259 -5.687,1.721 -1.541,0.242 -3.878,0.673 -5.417,0.96 -1.838,0.341 -3.36,0.703 -4.657,-0.424 -1.01,-0.878 -1.445,-2.429 -0.901,-3.652 0.127,-0.286 0.312,-0.546 0.522,-0.779 0.372,-0.414 0.793,-0.739 1.323,-0.911 0,0 0.801,-0.711 3.589,-1.05 2.788,-0.34 7.13,0.065 7.723,0.146 0.809,0.111 0.982,-0.673 1.417,-2.813 C -1.054,3.199 -0.736,0.014 0,0"
             style="fill:#1a2e35;fill-opacity:1;fill-rule:nonzero;stroke:none"
             id="path730" />
        </g>
        <g
           id="g732"
           transform="translate(392.2129,310.9116)">
          <path
             d="M 0,0 2.635,1.414 C 2.261,2.169 1.368,2.464 0.641,2.074 -0.087,1.684 -0.373,0.755 0,0"
             style="fill:#1a2e35;fill-opacity:1;fill-rule:nonzero;stroke:none"
             id="path734" />
        </g>
        <g
           id="g736"
           transform="translate(382.793,294.2432)">
          <path
             d="m 0,0 c 0,0 3.907,0.787 5.273,1.513 0.914,0.486 1.667,1.328 1.888,1.868 0,0 -0.256,-1.159 -1.072,-2.203 C 5.09,-0.099 0.001,-1.04 0.001,-1.04 Z"
             style="fill:#ff9090;fill-opacity:1;fill-rule:nonzero;stroke:none"
             id="path738" />
        </g>
        <g
           id="g740"
           transform="translate(383.7324,304.355)">
          <path
             d="m 0,0 c 0,-0.45 0.351,-0.812 0.783,-0.812 0.432,0.001 0.782,0.367 0.782,0.816 0,0.45 -0.35,0.812 -0.782,0.811 C 0.351,0.814 0,0.449 0,0"
             style="fill:#1a2e35;fill-opacity:1;fill-rule:nonzero;stroke:none"
             id="path742" />
        </g>
        <g
           id="g744"
           transform="translate(384.5625,307.3105)">
          <path
             d="M 0,0 1.675,-0.924 C 1.922,-0.443 1.747,0.154 1.285,0.409 0.822,0.665 0.247,0.481 0,0"
             style="fill:#1a2e35;fill-opacity:1;fill-rule:nonzero;stroke:none"
             id="path746" />
        </g>
        <g
           id="g748"
           transform="translate(383.1475,298.9463)">
          <path
             d="m 0,0 -1.787,-0.67 c 0.177,-0.513 0.72,-0.778 1.214,-0.593 C -0.08,-1.078 0.177,-0.512 0,0"
             style="fill:#ff9090;fill-opacity:1;fill-rule:nonzero;stroke:none"
             id="path750" />
        </g>
        <g
           id="g752"
           transform="translate(376.751,306.6587)">
          <path
             d="M 0,0 1.527,1.176 C 1.216,1.614 0.621,1.705 0.199,1.38 -0.223,1.055 -0.312,0.437 0,0"
             style="fill:#1a2e35;fill-opacity:1;fill-rule:nonzero;stroke:none"
             id="path754" />
        </g>
        <g
           id="g756"
           transform="translate(377.2207,304.5776)">
          <path
             d="m 0,0 c 0,-0.449 0.351,-0.812 0.783,-0.811 0.433,0.001 0.783,0.366 0.783,0.815 0,0.45 -0.35,0.813 -0.783,0.812 C 0.351,0.814 0,0.449 0,0"
             style="fill:#1a2e35;fill-opacity:1;fill-rule:nonzero;stroke:none"
             id="path758" />
        </g>
        <g
           id="g760"
           transform="translate(381.21,305.3203)">
          <path
             d="m 0,0 -0.258,-4.708 -2.458,0.837 z"
             style="fill:#ff9090;fill-opacity:1;fill-rule:nonzero;stroke:none"
             id="path762" />
        </g>
        <g
           id="g764"
           transform="translate(393.3926,182.1279)">
          <path
             d="m 0,0 v 0.717 c -0.479,-0.209 -1.595,-4.462 -3.584,-6.277 -1.582,-1.442 -3.739,-3.109 -4.288,-4.716 -0.571,-1.673 3.005,-2.597 4.482,-2.335 1.717,0.303 4.693,1.512 5.441,2.633 0.746,1.121 1.096,2.774 1.703,3.596 0.607,0.821 2.007,1.738 2.335,2.689 0.18,0.522 -0.034,1.666 -0.287,2.632 -0.233,0.886 -0.485,1.862 -0.787,1.778 -10e-4,-0.108 0,-0.546 0,-0.546 C 4.65,-0.232 3.644,-0.633 2.508,-0.677 1.773,-0.705 -0.006,-0.56 0,0"
             style="fill:#1a2e35;fill-opacity:1;fill-rule:nonzero;stroke:none"
             id="path766" />
        </g>
        <g
           id="g768"
           transform="translate(375.957,190.0693)">
          <path
             d="m 0,0 c -0.261,-0.01 -0.473,-0.377 -1.047,-0.998 -0.694,-0.752 -1.829,-1.562 -2.949,-2.123 -1.878,-0.94 -5.528,-2.386 -7.181,-3.13 -1.032,-0.465 -0.983,-1.712 0.083,-2.421 1.068,-0.709 3.643,-1.221 6.736,-0.529 1.685,0.377 3.879,1.933 5.266,1.849 1.389,-0.084 3.987,-0.064 5.011,0.642 1.025,0.707 0.615,2.215 0.325,3.512 C 5.929,-1.784 5.476,0.381 5.008,0.284 L 5.022,-0.161 C 4.42,-1.073 1.351,-1.446 0.026,-0.774 Z"
             style="fill:#1a2e35;fill-opacity:1;fill-rule:nonzero;stroke:none"
             id="path770" />
        </g>
        <g
           id="g772"
           transform="translate(385.6006,243.4736)">
          <path
             d="m 0,0 c 0,0 -4.008,1.129 -6.982,4.004 0,0 1.347,-2.523 5.354,-4.87 l -1.506,-12.822 z"
             style="fill:#1a2e35;fill-opacity:1;fill-rule:nonzero;stroke:none"
             id="path774" />
        </g>
        <g
           id="g776"
           transform="translate(357.5303,262.1782)">
          <path
             d="m 0,0 c 1.104,-0.284 2.17,-0.194 3.691,-0.717 1.341,-0.461 1.902,-0.627 3.22,-0.546 1.429,0.088 5.166,1.859 8.483,3.868 3.912,2.372 7.964,6.688 9.442,8.78 2.999,4.247 6.322,10.944 7.91,13.505 1.588,2.561 3.094,2.83 4.858,2.756 2.073,-0.087 3.401,-1.986 1.579,-5.929 C 37.361,17.773 33.425,11.158 29.65,6.594 27.821,4.383 24.595,1.102 19.579,-1.965 16.075,-4.107 12.998,-5.169 9.104,-6.473 8.042,-6.829 7.343,-7.355 5.398,-8.271 4.614,-8.641 3.767,-9.07 2.909,-9.188 c -1.09,-0.15 -2.2,-0.177 -3.289,-0.011 -1.371,0.209 -2.71,0.735 -3.779,1.618 -0.589,0.486 -1.097,1.084 -1.402,1.784 -0.303,0.7 -0.394,1.506 -0.168,2.235 0.045,0.148 0.107,0.297 0.22,0.403 0.203,0.191 0.515,0.194 0.794,0.184 1.561,-0.053 3.236,-0.344 4.787,-0.233 1.311,0.093 2.224,0.34 2.036,0.525 -0.187,0.185 -0.954,0.077 -2.006,0.529 -1.006,0.433 -1.735,1.456 -1.448,2.002 C -1.06,0.393 -1.104,0.284 0,0"
             style="fill:#ffaaa8;fill-opacity:1;fill-rule:nonzero;stroke:none"
             id="path778" />
        </g>
        <g
           id="g780"
           transform="translate(394.458,290.5596)">
          <path
             d="m 0,0 c 1.599,-0.078 3.659,-1.051 3.62,-3.774 -0.039,-2.723 -4.222,-10.632 -7.447,-15.149 0,0 -5.029,0.323 -7.674,4.114 0,0 4.702,7.476 5.979,9.863 C -4.379,-2.806 -2.331,0.114 0,0"
             style="fill:#00dfbf;fill-opacity:1;fill-rule:nonzero;stroke:none"
             id="path782" />
        </g>
        <g
           id="g784"
           transform="translate(352.5947,279.1479)">
          <path
             d="m 0,0 c 0,0 2.112,1.052 4.828,0.605 1.315,-0.216 1.32,-4.604 -2.908,-5.99 -2.751,-0.901 -4.402,-0.504 -5.291,-2.767 0,0 -1.781,0.237 -1.377,2.767 0.404,2.531 1.509,4.838 3.352,7.014 1.213,1.432 1.293,2.636 1.889,2.229 C 1.166,3.397 0.854,2.066 0.854,2.066 Z"
             style="fill:#ffaaa8;fill-opacity:1;fill-rule:nonzero;stroke:none"
             id="path786" />
        </g>
      </g>
    </g>
  </g>
</svg>
