<svg width="24" height="24" viewBox="0 0 24 24" fill="none" xmlns="http://www.w3.org/2000/svg">
<rect width="24" height="24" rx="12" fill="white"/>
<path fill-rule="evenodd" clip-rule="evenodd" d="M11.9802 5.16667C10.9127 5.16667 10.0256 5.20473 9.30595 5.352C8.57727 5.50113 7.97673 5.77073 7.52555 6.265C7.07968 6.75344 6.8316 7.40495 6.68941 8.21277C6.54747 9.01915 6.50291 10.0316 6.50291 11.286C6.50291 11.7701 6.50209 12.2247 6.50132 12.6511C6.49768 14.6675 6.49517 16.0538 6.58609 16.9579C6.64033 17.4974 6.73388 17.9553 6.93956 18.2842C7.05017 18.461 7.19707 18.6076 7.38781 18.7051C7.57514 18.801 7.77293 18.8333 7.96225 18.8333C8.39476 18.8333 8.81415 18.5954 9.15268 18.3602C9.48315 18.1306 9.83102 17.8333 10.16 17.5522L10.2379 17.4856C10.6011 17.1756 10.9423 16.8893 11.2625 16.6791C11.5947 16.461 11.8281 16.3773 11.9802 16.3773C12.1324 16.3773 12.3658 16.461 12.698 16.6791C13.0182 16.8893 13.3594 17.1756 13.7226 17.4856L13.8005 17.5521C14.1295 17.8333 14.4773 18.1306 14.8078 18.3602C15.1463 18.5954 15.5657 18.8333 15.9982 18.8333C16.1876 18.8333 16.3853 18.801 16.5727 18.7051C16.7634 18.6076 16.9103 18.461 17.0209 18.2842C17.2266 17.9553 17.3202 17.4974 17.3744 16.9579C17.4653 16.0538 17.4628 14.6675 17.4592 12.6511C17.4584 12.2247 17.4576 11.7701 17.4576 11.286C17.4576 10.0316 17.413 9.01915 17.2711 8.21277C17.1289 7.40495 16.8808 6.75344 16.4349 6.265C15.9838 5.77073 15.3832 5.50113 14.6545 5.352C13.9349 5.20473 13.0478 5.16667 11.9802 5.16667ZM7.50291 11.286C7.50291 10.0414 7.54827 9.10194 7.67427 8.38613C7.80001 7.67176 7.99789 7.23082 8.26411 6.93918C8.52501 6.65337 8.90268 6.45526 9.50644 6.3317C10.1193 6.20628 10.9188 6.16667 11.9802 6.16667C13.0417 6.16667 13.8412 6.20628 14.4541 6.3317C15.0578 6.45526 15.4355 6.65337 15.6964 6.93918C15.9626 7.23082 16.1605 7.67176 16.2862 8.38613C16.4122 9.10194 16.4576 10.0414 16.4576 11.286C16.4576 11.7819 16.4584 12.2438 16.4591 12.674C16.4625 14.6911 16.4648 16.0093 16.3794 16.8579C16.3268 17.3809 16.247 17.6357 16.1731 17.7539C16.1439 17.8006 16.1244 17.8112 16.1172 17.8149C16.1066 17.8203 16.0749 17.8333 15.9982 17.8333C15.8991 17.8333 15.7027 17.7643 15.3784 17.539C15.091 17.3393 14.7801 17.0737 14.4387 16.7821L14.3719 16.725C14.0158 16.4211 13.628 16.0934 13.2468 15.8431C12.8775 15.6007 12.4371 15.3773 11.9802 15.3773C11.5234 15.3773 11.083 15.6007 10.7137 15.8431C10.3325 16.0934 9.94469 16.4211 9.58864 16.725L9.52181 16.7821L9.52177 16.7821C9.18041 17.0737 8.86949 17.3393 8.58207 17.539C8.25784 17.7643 8.0614 17.8333 7.96225 17.8333C7.88557 17.8333 7.85387 17.8203 7.84327 17.8149C7.83608 17.8112 7.8166 17.8006 7.7874 17.7539C7.71345 17.6357 7.63366 17.3809 7.58107 16.8579C7.49574 16.0093 7.49798 14.6911 7.5014 12.674L7.5014 12.6739C7.50213 12.2438 7.50291 11.7819 7.50291 11.286ZM9.69507 9.64514C9.41893 9.64514 9.19507 9.86899 9.19507 10.1451C9.19507 10.4213 9.41893 10.6451 9.69507 10.6451H14.2651C14.5412 10.6451 14.7651 10.4213 14.7651 10.1451C14.7651 9.86899 14.5412 9.64514 14.2651 9.64514H9.69507Z" fill="#71B1A1"/>
</svg>
