<svg width="16" height="16" viewBox="0 0 16 16" fill="none" xmlns="http://www.w3.org/2000/svg">
<path fill-rule="evenodd" clip-rule="evenodd" d="M7.98012 1.16667C6.91255 1.16667 6.02545 1.20472 5.30582 1.352C4.57715 1.50112 3.97661 1.77072 3.52543 2.26499C3.07956 2.75344 2.83148 3.40495 2.68929 4.21277C2.54735 5.01915 2.50279 6.03157 2.50279 7.286C2.50279 7.77012 2.50197 8.22467 2.5012 8.65104L2.5012 8.65107C2.49756 10.6675 2.49505 12.0538 2.58597 12.9579C2.64021 13.4974 2.73375 13.9553 2.93943 14.2842C3.05005 14.461 3.19694 14.6076 3.38769 14.7051C3.57502 14.801 3.77281 14.8333 3.96212 14.8333C4.39464 14.8333 4.81403 14.5954 5.15256 14.3602C5.48302 14.1306 5.83089 13.8333 6.15986 13.5522L6.15987 13.5521L6.23774 13.4856C6.60101 13.1756 6.94221 12.8893 7.26241 12.6791C7.59454 12.461 7.82802 12.3773 7.98012 12.3773C8.13223 12.3773 8.3657 12.461 8.69784 12.6791C9.01804 12.8893 9.35924 13.1756 9.72251 13.4856L9.80037 13.5521C10.1293 13.8333 10.4772 14.1306 10.8077 14.3602C11.1462 14.5954 11.5656 14.8333 11.9981 14.8333C12.1874 14.8333 12.3852 14.801 12.5726 14.7051C12.7633 14.6076 12.9102 14.461 13.0208 14.2842C13.2265 13.9553 13.32 13.4974 13.3743 12.9579C13.4652 12.0538 13.4627 10.6675 13.4591 8.65108V8.65107L13.459 8.65023C13.4583 8.22409 13.4575 7.76981 13.4575 7.286C13.4575 6.03157 13.4129 5.01915 13.271 4.21277C13.1288 3.40495 12.8807 2.75344 12.4348 2.26499C11.9836 1.77072 11.3831 1.50112 10.6544 1.352C9.9348 1.20472 9.0477 1.16667 7.98012 1.16667ZM3.50279 7.286C3.50279 6.04143 3.54815 5.10194 3.67415 4.38613C3.79989 3.67176 3.99777 3.23082 4.26399 2.93918C4.52489 2.65336 4.90255 2.45525 5.50632 2.33169C6.11913 2.20628 6.9187 2.16667 7.98012 2.16667C9.04155 2.16667 9.84112 2.20628 10.4539 2.33169C11.0577 2.45525 11.4354 2.65336 11.6963 2.93918C11.9625 3.23082 12.1604 3.67176 12.2861 4.38613C12.4121 5.10194 12.4575 6.04143 12.4575 7.286C12.4575 7.78165 12.4582 8.24334 12.459 8.67327V8.67396V8.67399C12.4624 10.6911 12.4646 12.0093 12.3793 12.8579C12.3267 13.3809 12.2469 13.6357 12.173 13.7539C12.1438 13.8006 12.1243 13.8112 12.1171 13.8149C12.1065 13.8203 12.0748 13.8333 11.9981 13.8333C11.899 13.8333 11.7025 13.7643 11.3783 13.539C11.0909 13.3393 10.7799 13.0737 10.4386 12.7821L10.4386 12.7821L10.3717 12.725C10.0157 12.4211 9.62788 12.0934 9.24666 11.8431C8.87738 11.6007 8.43702 11.3773 7.98012 11.3773C7.52323 11.3773 7.08287 11.6007 6.71359 11.8431C6.33237 12.0934 5.94457 12.4211 5.58851 12.725L5.52168 12.7821L5.52164 12.7821C5.18028 13.0737 4.86936 13.3393 4.58194 13.539C4.25772 13.7643 4.06128 13.8333 3.96212 13.8333C3.88544 13.8333 3.85375 13.8203 3.84315 13.8149C3.83596 13.8112 3.81648 13.8006 3.78727 13.7539C3.71333 13.6357 3.63354 13.3809 3.58095 12.8579C3.49562 12.0093 3.49786 10.6911 3.50128 8.67397C3.50201 8.24384 3.50279 7.78192 3.50279 7.286ZM5.69495 5.64513C5.4188 5.64513 5.19495 5.86899 5.19495 6.14513C5.19495 6.42128 5.4188 6.64513 5.69495 6.64513H10.2649C10.5411 6.64513 10.7649 6.42128 10.7649 6.14513C10.7649 5.86899 10.5411 5.64513 10.2649 5.64513H5.69495Z" fill="#A9A9A9"/>
</svg>
