<svg width="12" height="14" viewBox="0 0 12 14" fill="none" xmlns="http://www.w3.org/2000/svg">
<path fill-rule="evenodd" clip-rule="evenodd" d="M5.98012 0.166668C4.91255 0.166668 4.02545 0.204724 3.30582 0.351998C2.57715 0.501123 1.97661 0.770723 1.52543 1.26499C1.07956 1.75344 0.831483 2.40495 0.689289 3.21277C0.54735 4.01915 0.502792 5.03157 0.502792 6.286C0.502792 6.77013 0.50197 7.22469 0.5012 7.65107C0.497555 9.66752 0.49505 11.0538 0.585967 11.9579C0.640213 12.4974 0.733755 12.9553 0.939434 13.2842C1.05005 13.461 1.19694 13.6076 1.38769 13.7051C1.57502 13.801 1.77281 13.8333 1.96212 13.8333C2.39464 13.8333 2.81403 13.5954 3.15256 13.3602C3.48303 13.1306 3.8309 12.8333 4.15987 12.5521L4.23774 12.4856C4.60101 12.1756 4.94221 11.8893 5.26241 11.6791C5.59455 11.461 5.82802 11.3773 5.98012 11.3773C6.13223 11.3773 6.3657 11.461 6.69784 11.6791C7.01804 11.8893 7.35924 12.1756 7.72251 12.4856L7.80037 12.5521C8.12934 12.8333 8.47722 13.1306 8.80769 13.3602C9.14622 13.5954 9.56561 13.8333 9.99812 13.8333C10.1874 13.8333 10.3852 13.801 10.5726 13.7051C10.7633 13.6076 10.9102 13.461 11.0208 13.2842C11.2265 12.9553 11.32 12.4974 11.3743 11.9579C11.4652 11.0538 11.4627 9.66753 11.459 7.65107C11.4583 7.22469 11.4575 6.77013 11.4575 6.286C11.4575 5.03157 11.4129 4.01915 11.271 3.21277C11.1288 2.40495 10.8807 1.75344 10.4348 1.26499C9.98364 0.770723 9.3831 0.501123 8.65443 0.351998C7.9348 0.204724 7.0477 0.166668 5.98012 0.166668ZM1.50279 6.286C1.50279 5.04143 1.54815 4.10194 1.67415 3.38613C1.79989 2.67176 1.99777 2.23082 2.26399 1.93918C2.52489 1.65336 2.90255 1.45525 3.50632 1.33169C4.11913 1.20628 4.9187 1.16667 5.98012 1.16667C7.04155 1.16667 7.84112 1.20628 8.45393 1.33169C9.05769 1.45525 9.43536 1.65336 9.69626 1.93918C9.96248 2.23082 10.1604 2.67176 10.2861 3.38613C10.4121 4.10194 10.4575 5.04143 10.4575 6.286C10.4575 6.78192 10.4582 7.24383 10.459 7.67396C10.4624 9.69114 10.4646 11.0093 10.3793 11.8579C10.3267 12.3809 10.2469 12.6357 10.173 12.7539C10.1438 12.8006 10.1243 12.8112 10.1171 12.8149C10.1065 12.8203 10.0748 12.8333 9.99812 12.8333C9.89897 12.8333 9.70253 12.7643 9.3783 12.539C9.09087 12.3393 8.77994 12.0737 8.43856 11.7821L8.37174 11.725C8.01568 11.4211 7.62788 11.0934 7.24666 10.8431C6.87738 10.6007 6.43702 10.3773 5.98012 10.3773C5.52323 10.3773 5.08287 10.6007 4.71359 10.8431C4.33237 11.0934 3.94457 11.4211 3.58851 11.725L3.52168 11.7821L3.52165 11.7821C3.18029 12.0737 2.86936 12.3393 2.58194 12.539C2.25772 12.7643 2.06128 12.8333 1.96212 12.8333C1.88544 12.8333 1.85375 12.8203 1.84315 12.8149C1.83596 12.8112 1.81648 12.8006 1.78727 12.7539C1.71333 12.6357 1.63354 12.3809 1.58095 11.8579C1.49562 11.0093 1.49786 9.69114 1.50128 7.67397L1.50128 7.67391C1.50201 7.2438 1.50279 6.7819 1.50279 6.286ZM3.69495 4.64513C3.4188 4.64513 3.19495 4.86899 3.19495 5.14513C3.19495 5.42128 3.4188 5.64513 3.69495 5.64513H8.26495C8.54109 5.64513 8.76495 5.42128 8.76495 5.14513C8.76495 4.86899 8.54109 4.64513 8.26495 4.64513H3.69495Z" fill="#71B1A1"/>
</svg>
