<svg width="24" height="24" viewBox="0 0 24 24" fill="none" xmlns="http://www.w3.org/2000/svg">
<path d="M20.4699 6.20547L20.4701 6.20557C21.1412 6.67539 21.706 7.38624 22.1023 8.14541C22.4987 8.90459 22.76 9.7761 22.76 10.6V17.38C22.76 20.3442 20.3542 22.75 17.39 22.75H6.60999C3.64367 22.75 1.23999 20.3321 1.23999 17.37V10.47C1.23999 9.69666 1.47816 8.86777 1.83713 8.1387C2.19627 7.40929 2.7083 6.7148 3.31855 6.23875C3.31861 6.23871 3.31866 6.23866 3.31872 6.23862L8.32856 2.32875L8.33062 2.32714L8.33062 2.32714C10.1003 0.95592 12.8707 0.887133 14.7099 2.17547L20.4699 6.20547ZM20.4699 6.20547L14.7103 2.17576L20.4699 6.20547Z" fill="#DBEBE7" stroke="#129575" stroke-width="1.5"/>
</svg>
