<svg width="24" height="24" viewBox="0 0 24 24" fill="none" xmlns="http://www.w3.org/2000/svg">
<path d="M5.40875 12.4276L5.40878 12.4276L5.41171 12.4226C5.56188 12.166 5.69097 11.8206 5.78227 11.489C5.87345 11.1577 5.9402 10.7922 5.9402 10.49V8.62999C5.9402 5.27761 8.66502 2.55961 12.0209 2.54999C15.3639 2.55036 18.0902 5.27586 18.0902 8.62999V10.5C18.0902 10.8024 18.157 11.1683 18.2499 11.5008C18.3425 11.8325 18.4748 12.1799 18.6324 12.4389C18.6327 12.4393 18.633 12.4398 18.6333 12.4403L19.7604 14.3154C19.7606 14.3157 19.7607 14.3161 19.7609 14.3164C20.0945 14.8784 20.1574 15.5395 19.9323 16.1438C19.7047 16.7446 19.2271 17.2143 18.6011 17.426C17.5449 17.778 16.4616 18.051 15.3709 18.2263L15.3708 18.2262L15.3608 18.2281C15.2469 18.2488 15.1589 18.2644 15.0749 18.272L15.0564 18.2737L15.038 18.2768C14.8737 18.3042 14.7072 18.3228 14.525 18.343L14.525 18.3429L14.5126 18.3446C14.3069 18.3726 14.0893 18.3917 13.8569 18.4119L13.8569 18.4118L13.852 18.4123C13.2484 18.4707 12.6344 18.5 12.0202 18.5C11.3957 18.5 10.7716 18.4707 10.1576 18.4122L10.1576 18.4121L10.1471 18.4114C9.89055 18.3923 9.64359 18.3639 9.39623 18.3258L9.39625 18.3257L9.38629 18.3244C9.23898 18.3047 9.09446 18.2855 8.95969 18.2663C8.89722 18.2552 8.8367 18.2469 8.78685 18.2401L8.78276 18.2396C8.72599 18.2318 8.68194 18.2257 8.63965 18.2181L8.63965 18.218L8.63456 18.2172C7.54582 18.0308 6.48087 17.7765 5.42832 17.4256L5.42475 17.4245C4.76204 17.2091 4.27316 16.7352 4.05916 16.1565L4.05837 16.1544C3.84876 15.5955 3.91654 14.9236 4.27995 14.3056L5.40875 12.4276ZM11.9902 11.26C12.6863 11.26 13.2502 10.6961 13.2502 9.99999V6.89999C13.2502 6.20385 12.6863 5.63999 11.9902 5.63999C11.2941 5.63999 10.7302 6.20385 10.7302 6.89999V9.99999C10.7302 10.6961 11.2941 11.26 11.9902 11.26Z" fill="#DBEBE7" stroke="#129575"/>
<path d="M14.8302 20.01C14.4102 21.17 13.3002 22 12.0002 22C11.2102 22 10.4302 21.68 9.88018 21.11C9.56018 20.81 9.32018 20.41 9.18018 20C9.31018 20.02 9.44018 20.03 9.58018 20.05C9.81018 20.08 10.0502 20.11 10.2902 20.13C10.8602 20.18 11.4402 20.21 12.0202 20.21C12.5902 20.21 13.1602 20.18 13.7202 20.13C13.9302 20.11 14.1402 20.1 14.3402 20.07C14.5002 20.05 14.6602 20.03 14.8302 20.01Z" fill="#DBEBE7" stroke="#129575"/>
</svg>
