<svg width="20" height="20" viewBox="0 0 20 20" fill="none" xmlns="http://www.w3.org/2000/svg">
<path fill-rule="evenodd" clip-rule="evenodd" d="M9.9752 2.08333C4.6527 2.08333 3.75354 2.85999 3.75354 9.10749C3.75354 16.1017 3.6227 17.9167 4.9527 17.9167C6.28187 17.9167 8.4527 14.8467 9.9752 14.8467C11.4977 14.8467 13.6685 17.9167 14.9977 17.9167C16.3277 17.9167 16.1969 16.1017 16.1969 9.10749C16.1969 2.85999 15.2977 2.08333 9.9752 2.08333Z" fill="#121212"/>
<path fill-rule="evenodd" clip-rule="evenodd" d="M9.97531 1.45833C8.64083 1.45833 7.53197 1.5059 6.63243 1.68999C5.72159 1.8764 4.97092 2.2134 4.40694 2.83123C3.8496 3.44179 3.53951 4.25618 3.36176 5.26596C3.18434 6.27393 3.12864 7.53946 3.12864 9.10749C3.12864 9.71264 3.12762 10.2808 3.12665 10.8138L3.12665 10.8138C3.1221 13.3344 3.11896 15.0672 3.23261 16.1974C3.30042 16.8717 3.41735 17.4441 3.67444 17.8552C3.81271 18.0763 3.99633 18.2594 4.23476 18.3814C4.46893 18.5012 4.71616 18.5417 4.95281 18.5417C5.49345 18.5417 6.01769 18.2443 6.44085 17.9502C6.85394 17.6632 7.28877 17.2916 7.69998 16.9402L7.69999 16.9402L7.79732 16.857C8.25142 16.4694 8.67792 16.1116 9.07816 15.8488C9.49333 15.5762 9.78518 15.4717 9.97531 15.4717C10.1654 15.4717 10.4573 15.5762 10.8725 15.8488C11.2727 16.1116 11.6992 16.4694 12.1533 16.857L12.2506 16.9402C12.6618 17.2916 13.0967 17.6632 13.5098 17.9502C13.9329 18.2443 14.4572 18.5417 14.9978 18.5417C15.2345 18.5417 15.4817 18.5012 15.7159 18.3814C15.9543 18.2594 16.1379 18.0763 16.2762 17.8552C16.5333 17.4441 16.6502 16.8717 16.718 16.1974C16.8317 15.0672 16.8285 13.3344 16.824 10.8138C16.823 10.2809 16.822 9.71266 16.822 9.10749C16.822 7.53946 16.7663 6.27393 16.5889 5.26596C16.4111 4.25618 16.101 3.44179 15.5437 2.83123C14.9797 2.2134 14.229 1.8764 13.3182 1.68999C12.4187 1.5059 11.3098 1.45833 9.97531 1.45833ZM4.37864 9.10749C4.37864 7.55178 4.43534 6.37742 4.59284 5.48265C4.75002 4.58969 4.99737 4.03851 5.33014 3.67396C5.65626 3.3167 6.12835 3.06906 6.88305 2.91461C7.64907 2.75784 8.64853 2.70833 9.97531 2.70833C11.3021 2.70833 12.3016 2.75784 13.0676 2.91461C13.8223 3.06906 14.2944 3.3167 14.6205 3.67396C14.9533 4.03851 15.2006 4.58969 15.3578 5.48265C15.5153 6.37742 15.572 7.55178 15.572 9.10749C15.572 9.72739 15.573 10.3048 15.5739 10.8424V10.8425C15.5781 13.3639 15.5809 15.0116 15.4743 16.0724C15.4085 16.7261 15.3088 17.0446 15.2164 17.1924C15.1799 17.2507 15.1555 17.264 15.1465 17.2686C15.1333 17.2754 15.0937 17.2917 14.9978 17.2917C14.8739 17.2917 14.6283 17.2053 14.223 16.9237C13.8637 16.6741 13.4751 16.3421 13.0484 15.9776L12.9648 15.9063C12.5198 15.5264 12.035 15.1167 11.5585 14.8039C11.0969 14.5008 10.5464 14.2217 9.97531 14.2217C9.40419 14.2217 8.85374 14.5008 8.39214 14.8039C7.91561 15.1167 7.43087 15.5264 6.98579 15.9063L6.90226 15.9776L6.90224 15.9776C6.47553 16.3421 6.08687 16.6741 5.72758 16.9237C5.3223 17.2053 5.07675 17.2917 4.95281 17.2917C4.85696 17.2917 4.81734 17.2754 4.80409 17.2686C4.79511 17.264 4.77075 17.2507 4.73425 17.1924C4.64181 17.0446 4.54207 16.7261 4.47634 16.0724C4.36968 15.0116 4.37247 13.3639 4.37675 10.8425C4.37766 10.3048 4.37864 9.7274 4.37864 9.10749ZM7.11884 7.05641C6.77366 7.05641 6.49384 7.33623 6.49384 7.68141C6.49384 8.02659 6.77366 8.30641 7.11884 8.30641H12.8313C13.1765 8.30641 13.4563 8.02659 13.4563 7.68141C13.4563 7.33623 13.1765 7.05641 12.8313 7.05641H7.11884Z" fill="white"/>
</svg>
