<svg width="24" height="24" viewBox="0 0 24 24" fill="none" xmlns="http://www.w3.org/2000/svg">
<path fill-rule="evenodd" clip-rule="evenodd" d="M11.9702 2.5C5.58324 2.5 4.50424 3.432 4.50424 10.929C4.50424 19.322 4.34724 21.5 5.94324 21.5C7.53824 21.5 10.1432 17.816 11.9702 17.816C13.7972 17.816 16.4022 21.5 17.9972 21.5C19.5932 21.5 19.4362 19.322 19.4362 10.929C19.4362 3.432 18.3572 2.5 11.9702 2.5Z" fill="#DBEBE7"/>
<path fill-rule="evenodd" clip-rule="evenodd" d="M11.9701 1.75C10.3688 1.75 9.03812 1.80708 7.95867 2.02799C6.86567 2.25168 5.96485 2.65608 5.28808 3.39749C4.61928 4.13015 4.24716 5.10742 4.03387 6.31915C3.82096 7.52872 3.75413 9.04736 3.75413 10.929C3.75413 11.6552 3.75289 12.337 3.75174 12.9766L3.75174 12.9766C3.74627 16.0013 3.74251 18.0807 3.87889 19.4369C3.96026 20.2461 4.10057 20.9329 4.40909 21.4262C4.57501 21.6915 4.79536 21.9113 5.08147 22.0577C5.36247 22.2015 5.65915 22.25 5.94313 22.25C6.5919 22.25 7.22098 21.8931 7.72877 21.5403C8.22448 21.1959 8.74629 20.7499 9.23975 20.3282L9.35654 20.2284C9.90146 19.7633 10.4133 19.3339 10.8936 19.0186C11.3918 18.6915 11.742 18.566 11.9701 18.566C12.1983 18.566 12.5485 18.6915 13.0467 19.0186C13.527 19.3339 14.0388 19.7633 14.5837 20.2284L14.7005 20.3282C15.194 20.7499 15.7158 21.1959 16.2115 21.5403C16.7193 21.8931 17.3484 22.25 17.9971 22.25C18.2811 22.25 18.5778 22.2015 18.8588 22.0577C19.1449 21.9113 19.3652 21.6915 19.5312 21.4262C19.8397 20.9329 19.98 20.2461 20.0614 19.4369C20.1977 18.0807 20.194 16.0013 20.1885 12.9766C20.1874 12.337 20.1861 11.6552 20.1861 10.929C20.1861 9.04736 20.1193 7.52872 19.9064 6.31915C19.6931 5.10742 19.321 4.13015 18.6522 3.39749C17.9754 2.65608 17.0746 2.25168 15.9816 2.02799C14.9021 1.80708 13.5715 1.75 11.9701 1.75ZM5.25413 10.929C5.25413 9.06214 5.32216 7.65291 5.51116 6.57919C5.69978 5.50764 5.9966 4.84622 6.39592 4.40876C6.78727 3.98004 7.35377 3.68288 8.25942 3.49754C9.17864 3.30942 10.378 3.25 11.9701 3.25C13.5623 3.25 14.7616 3.30942 15.6808 3.49754C16.5865 3.68288 17.153 3.98004 17.5443 4.40876C17.9437 4.84622 18.2405 5.50764 18.4291 6.57919C18.6181 7.65291 18.6861 9.06214 18.6861 10.929C18.6861 11.6729 18.6873 12.3657 18.6884 13.0109C18.6935 16.0367 18.6969 18.014 18.5689 19.2868C18.49 20.0713 18.3703 20.4535 18.2594 20.6309C18.2156 20.7009 18.1864 20.7168 18.1756 20.7223C18.1597 20.7305 18.1121 20.75 17.9971 20.75C17.8484 20.75 17.5537 20.6464 17.0674 20.3085C16.6363 20.0089 16.1698 19.6105 15.6578 19.1731L15.5575 19.0876C15.0235 18.6317 14.4418 18.1401 13.8699 17.7647C13.316 17.401 12.6555 17.066 11.9701 17.066C11.2848 17.066 10.6242 17.401 10.0703 17.7647C9.49849 18.1401 8.9168 18.6317 8.38271 19.0876L8.28247 19.1732L8.28243 19.1732C7.77038 19.6105 7.30399 20.0089 6.87286 20.3085C6.38652 20.6464 6.09185 20.75 5.94313 20.75C5.8281 20.75 5.78056 20.7305 5.76466 20.7223C5.75388 20.7168 5.72465 20.7009 5.68085 20.6309C5.56993 20.4535 5.45024 20.0713 5.37136 19.2868C5.24337 18.014 5.24672 16.0367 5.25186 13.011C5.25295 12.3658 5.25413 11.6729 5.25413 10.929ZM8.54236 8.4677C8.12814 8.4677 7.79236 8.80348 7.79236 9.2177C7.79236 9.63191 8.12814 9.9677 8.54236 9.9677H15.3974C15.8116 9.9677 16.1474 9.63191 16.1474 9.2177C16.1474 8.80348 15.8116 8.4677 15.3974 8.4677H8.54236Z" fill="#129575"/>
</svg>
