<svg width="20" height="20" viewBox="0 0 20 20" fill="none" xmlns="http://www.w3.org/2000/svg">
<path d="M14.1667 1.66666H5.83341C3.53341 1.66666 1.66675 3.52499 1.66675 5.81666V10.8V11.6333C1.66675 13.925 3.53341 15.7833 5.83341 15.7833H7.08341C7.30841 15.7833 7.60841 15.9333 7.75008 16.1167L9.00008 17.775C9.55008 18.5083 10.4501 18.5083 11.0001 17.775L12.2501 16.1167C12.4084 15.9083 12.6584 15.7833 12.9167 15.7833H14.1667C16.4667 15.7833 18.3334 13.925 18.3334 11.6333V5.81666C18.3334 3.52499 16.4667 1.66666 14.1667 1.66666ZM6.66675 9.99999C6.20008 9.99999 5.83341 9.62499 5.83341 9.16666C5.83341 8.70832 6.20841 8.33332 6.66675 8.33332C7.12508 8.33332 7.50008 8.70832 7.50008 9.16666C7.50008 9.62499 7.13341 9.99999 6.66675 9.99999ZM10.0001 9.99999C9.53341 9.99999 9.16675 9.62499 9.16675 9.16666C9.16675 8.70832 9.54175 8.33332 10.0001 8.33332C10.4584 8.33332 10.8334 8.70832 10.8334 9.16666C10.8334 9.62499 10.4667 9.99999 10.0001 9.99999ZM13.3334 9.99999C12.8667 9.99999 12.5001 9.62499 12.5001 9.16666C12.5001 8.70832 12.8751 8.33332 13.3334 8.33332C13.7917 8.33332 14.1667 8.70832 14.1667 9.16666C14.1667 9.62499 13.8001 9.99999 13.3334 9.99999Z" fill="#121212"/>
</svg>
