<svg width="8" height="8" viewBox="0 0 8 8" fill="none" xmlns="http://www.w3.org/2000/svg">
<g clip-path="url(#clip0_36_871)">
<path d="M6.15633 7.50012C6.1037 7.50032 6.05236 7.48392 6.00961 7.45324L4.00008 5.99637L1.99054 7.45324C1.94761 7.48438 1.89589 7.50106 1.84285 7.50087C1.78982 7.50067 1.73822 7.48362 1.69551 7.45217C1.65281 7.42072 1.62121 7.3765 1.60529 7.32591C1.58937 7.27532 1.58995 7.22098 1.60695 7.17074L2.3907 4.84934L0.359451 3.45637C0.315452 3.42623 0.282245 3.38281 0.26468 3.33245C0.247116 3.2821 0.246115 3.22744 0.261823 3.17648C0.277532 3.12551 0.309126 3.08091 0.351991 3.04918C0.394856 3.01745 0.446745 3.00026 0.500076 3.00012H3.00601L3.76226 0.672773C3.77855 0.622526 3.81034 0.578731 3.85307 0.54767C3.89579 0.516609 3.94725 0.499878 4.00008 0.499878C4.0529 0.499878 4.10436 0.516609 4.14709 0.54767C4.18981 0.578731 4.2216 0.622526 4.23789 0.672773L4.99414 3.0009H7.50008C7.55347 3.00087 7.60548 3.01794 7.64847 3.04961C7.69146 3.08128 7.72318 3.12588 7.73899 3.17689C7.7548 3.22789 7.75386 3.28262 7.73632 3.33305C7.71877 3.38348 7.68553 3.42697 7.64148 3.45715L5.60945 4.84934L6.39273 7.17012C6.40542 7.20769 6.40899 7.24774 6.40315 7.28697C6.3973 7.3262 6.38221 7.36347 6.35911 7.39571C6.33601 7.42795 6.30558 7.45423 6.27032 7.47239C6.23506 7.49054 6.19598 7.50005 6.15633 7.50012Z" fill="#FFAD30"/>
</g>
<defs>
<clipPath id="clip0_36_871">
<rect width="8" height="8" fill="white"/>
</clipPath>
</defs>
</svg>
