<svg width="17" height="18" viewBox="0 0 17 18" fill="none" xmlns="http://www.w3.org/2000/svg">
<path d="M8.49992 16.6146C4.78825 16.6146 1.77075 13.5971 1.77075 9.88542C1.77075 6.17375 4.78825 3.15625 8.49992 3.15625C12.2116 3.15625 15.2291 6.17375 15.2291 9.88542C15.2291 13.5971 12.2116 16.6146 8.49992 16.6146ZM8.49992 4.21875C5.37617 4.21875 2.83325 6.76167 2.83325 9.88542C2.83325 13.0092 5.37617 15.5521 8.49992 15.5521C11.6237 15.5521 14.1666 13.0092 14.1666 9.88542C14.1666 6.76167 11.6237 4.21875 8.49992 4.21875Z" fill="#D9D9D9"/>
<path d="M8.5 10.2396C8.20958 10.2396 7.96875 9.99876 7.96875 9.70834V6.16667C7.96875 5.87626 8.20958 5.63542 8.5 5.63542C8.79042 5.63542 9.03125 5.87626 9.03125 6.16667V9.70834C9.03125 9.99876 8.79042 10.2396 8.5 10.2396Z" fill="#D9D9D9"/>
<path d="M10.625 2.44792H6.375C6.08458 2.44792 5.84375 2.20709 5.84375 1.91667C5.84375 1.62626 6.08458 1.38542 6.375 1.38542H10.625C10.9154 1.38542 11.1562 1.62626 11.1562 1.91667C11.1562 2.20709 10.9154 2.44792 10.625 2.44792Z" fill="#D9D9D9"/>
</svg>
